<?xml version="1.0" encoding="utf-8"?>
<!-- Generator: Adobe Illustrator 25.0.1, SVG Export Plug-In . SVG Version: 6.00 Build 0)  -->
<svg version="1.1" id="Layer_1" xmlns="http://www.w3.org/2000/svg" xmlns:xlink="http://www.w3.org/1999/xlink" x="0px" y="0px"
	 viewBox="0 0 156.1 143.4" style="enable-background:new 0 0 156.1 143.4;" xml:space="preserve">
<style type="text/css">
	.st0{fill:none;}
	.st1{fill:#B8D3FF;}
	.st2{fill:#6EA6FF;}
</style>
<g>
	<polygon class="st0" points="63,94.6 57.8,108.8 98.4,108.8 93.2,94.6 	"/>
	<polygon class="st0" points="64,28.5 36.1,28.5 36.1,46.7 57,46.7 	"/>
	<polygon class="st0" points="87.5,78.7 78,53.3 68.9,78.7 	"/>
	<polygon class="st0" points="36.1,49.3 36.1,100.6 36.5,100.7 56.1,49.3 	"/>
	<polygon class="st0" points="60.9,46.7 119.8,46.7 119.9,28.5 67.9,28.5 	"/>
	<polygon class="st0" points="80.2,49.3 92.5,82.3 63.7,82.3 75.5,49.3 73.5,49.3 59.9,49.3 37.2,108.8 54.1,108.8 59,94.9 60.4,91 
		95.6,91 97.1,94.8 102.2,108.7 119.6,108.7 119.6,49.3 84,49.3 	"/>
	<path class="st1" d="M92.5,82.3l-12.3-33h-4.7l-11.8,33H92.5z M78,53.3l9.5,25.4H68.9L78,53.3z"/>
</g>
<g>
	<polygon class="st0" points="63,94.6 57.8,108.8 61.3,108.8 96.4,108.8 98.4,108.8 93.2,94.6 	"/>
	<polygon class="st0" points="59.7,28.5 36.1,28.5 36.1,46.7 54,46.7 57,46.7 64,28.5 	"/>
	<polygon class="st0" points="59.9,49.3 37.2,108.8 39.1,108.8 51.2,108.8 54.1,108.8 60.4,91 95.6,91 102.2,108.8 106.8,108.8 
		119.6,108.8 119.6,49.3 62.5,49.3 	"/>
	<polygon class="st0" points="67.9,28.5 60.9,46.7 65.4,46.7 119.8,46.7 119.9,28.5 71.2,28.5 	"/>
	<polygon class="st0" points="53.1,49.3 36.1,49.3 36.1,99.2 36.1,101.7 56.1,49.3 	"/>
	<polygon class="st1" points="56.1,49.3 36.1,101.7 36.1,108.8 37.2,108.8 59.9,49.3 	"/>
	<polygon class="st1" points="60.4,91 54.1,108.8 57.8,108.8 63,94.6 93.2,94.6 98.4,108.8 102.2,108.8 95.6,91 	"/>
	<path class="st2" d="M155.2,28.5v-2.6h-32.8V0.2h-2.6v25.7H36.1V0.2h-2.6v25.7H1.1v2.6h32.3v18.2H1.1v2.6h32.3v59.5H1.1v2.4h32.3
		v32H36v-32h83.6v32.1h2.8v-32.1h32.8v-2.4h-32.8V49.3h32.8v-2.6h-32.8V28.5H155.2z M119.6,108.8H36.1V49.3h17h3h3.8h2.6h57.1
		L119.6,108.8z M119.8,46.7H65.4h-4.5H57h-3H36.1V28.5h23.6H64h3.9h3.3h48.7L119.8,46.7z"/>
	<polygon class="st1" points="64,28.5 57,46.7 60.9,46.7 67.9,28.5 	"/>
</g>
</svg>
