<?xml version="1.0" encoding="utf-8"?>
<!-- Generator: Adobe Illustrator 25.0.1, SVG Export Plug-In . SVG Version: 6.00 Build 0)  -->
<svg version="1.1" id="Layer_1" xmlns="http://www.w3.org/2000/svg" xmlns:xlink="http://www.w3.org/1999/xlink" x="0px" y="0px"
	 viewBox="0 0 161.2 150" style="enable-background:new 0 0 161.2 150;" xml:space="preserve">
<style type="text/css">
	.st0{fill:#6EA6FF;}
	.st1{fill:#B8D3FF;}
</style>
<g>
	<path class="st0" d="M129.6,145.9H5.9c-0.8,0-1.5-0.7-1.5-1.5V59.7c0-0.8,0.7-1.5,1.5-1.5h92c0.8,0,1.5-0.7,1.5-1.5l0,0
		c0-0.8-0.7-1.5-1.5-1.5h-92c-0.8,0-1.5-0.7-1.5-1.5V44c0-0.8,0.7-1.5,1.5-1.5H98c0.8,0,1.5-0.7,1.5-1.5l0,0c0-0.8-0.7-1.5-1.5-1.5
		H2.9c-0.8,0-1.5,0.7-1.5,1.5v106.4c0,0.8,0.7,1.5,1.5,1.5h129.7c0.8,0,1.5-0.7,1.5-1.5V97.9c0-0.8-0.7-1.5-1.5-1.5l0,0
		c-0.8,0-1.5,0.7-1.5,1.5v46.5C131.1,145.2,130.4,145.9,129.6,145.9z"/>
	<path class="st0" d="M106.1,2.7v86.1c0,0.6,0.4,1,1,1h51c0.5,0,1-0.4,1-1V2.7c0-0.5-0.4-1-1-1h-51C106.5,1.7,106.1,2.1,106.1,2.7z
		 M156.1,5.7v8.1c0,0.5-0.4,1-1,1h-44.9c-0.5,0-1-0.4-1-1V5.7c0-0.5,0.4-1,1-1h44.9C155.7,4.7,156.1,5.1,156.1,5.7z M156.1,18.8
		v53.7c0,0.5-0.4,1-1,1h-44.9c-0.5,0-1-0.4-1-1V18.8c0-0.5,0.4-1,1-1h44.9C155.7,17.8,156.1,18.2,156.1,18.8z M110.2,76.5h44.9
		c0.5,0,1,0.4,1,1v8.3c0,0.5-0.4,1-1,1h-44.9c-0.5,0-1-0.4-1-1v-8.3C109.2,76.9,109.6,76.5,110.2,76.5z"/>
	<path class="st1" d="M11.2,47h4.1c0.8,0,1.5,0.7,1.5,1.5l0,0c0,0.8-0.7,1.5-1.5,1.5h-4.1c-0.8,0-1.5-0.7-1.5-1.5l0,0
		C9.7,47.7,10.4,47,11.2,47z"/>
	<path class="st0" d="M14.1,96.9H28c0.8,0,1.5,0.7,1.5,1.5l0,0c0,0.8-0.7,1.5-1.5,1.5H14.1c-0.8,0-1.5-0.7-1.5-1.5l0,0
		C12.6,97.6,13.3,96.9,14.1,96.9z"/>
	<path class="st0" d="M41.5,96.9h32.8c0.8,0,1.5,0.7,1.5,1.5l0,0c0,0.8-0.7,1.5-1.5,1.5H41.5c-0.8,0-1.5-0.7-1.5-1.5l0,0
		C40,97.6,40.7,96.9,41.5,96.9z"/>
	<path class="st0" d="M87.6,96.8h33.6c0.8,0,1.5,0.7,1.5,1.5l0,0c0,0.8-0.7,1.5-1.5,1.5H87.6c-0.8,0-1.5-0.7-1.5-1.5l0,0
		C86.1,97.5,86.8,96.8,87.6,96.8z"/>
	<path class="st0" d="M61.3,106.6h59.9c0.8,0,1.5,0.7,1.5,1.5l0,0c0,0.8-0.7,1.5-1.5,1.5H61.3c-0.8,0-1.5-0.7-1.5-1.5l0,0
		C59.8,107.3,60.5,106.6,61.3,106.6z"/>
	<path class="st0" d="M14.1,106.8l33.8-0.2c0.8,0,1.5,0.7,1.5,1.5l0,0c0,0.8-0.7,1.5-1.5,1.5l-33.8,0.2c-0.8,0-1.5-0.7-1.5-1.5l0,0
		C12.6,107.5,13.3,106.8,14.1,106.8z"/>
	<path class="st0" d="M12.6,118.1L12.6,118.1c0-0.8,0.7-1.5,1.5-1.5l27.8,0.1c0.8,0,1.5,0.7,1.5,1.5l0,0c0,0.8-0.7,1.5-1.5,1.5
		l-27.8-0.1C13.3,119.6,12.6,119,12.6,118.1z"/>
	<path class="st0" d="M56,116.8h65.5c0.8,0,1.5,0.7,1.5,1.5l0,0c0,0.8-0.7,1.5-1.5,1.5H56c-0.8,0-1.5-0.7-1.5-1.5l0,0
		C54.5,117.5,55.2,116.8,56,116.8z"/>
	<path class="st0" d="M85.6,126.6h35.8c0.8,0,1.5,0.7,1.5,1.5l0,0c0,0.8-0.7,1.5-1.5,1.5H85.6c-0.8,0-1.5-0.7-1.5-1.5l0,0
		C84.1,127.3,84.8,126.6,85.6,126.6z"/>
	<path class="st0" d="M35.4,126.7H75c0.8,0,1.5,0.7,1.5,1.5l0,0c0,0.8-0.7,1.5-1.5,1.5H35.4c-0.8,0-1.5-0.7-1.5-1.5l0,0
		C33.9,127.4,34.6,126.7,35.4,126.7z"/>
	<path class="st0" d="M14.1,126.6h8.5c0.8,0,1.5,0.7,1.5,1.5l0,0c0,0.8-0.7,1.5-1.5,1.5h-8.5c-0.8,0-1.5-0.7-1.5-1.5l0,0
		C12.6,127.3,13.3,126.6,14.1,126.6z"/>
	<path class="st0" d="M14.1,136.5h34.6c0.8,0,1.5,0.7,1.5,1.5l0,0c0,0.8-0.7,1.5-1.5,1.5H14.1c-0.8,0-1.5-0.7-1.5-1.5l0,0
		C12.6,137.2,13.3,136.5,14.1,136.5z"/>
	<path class="st0" d="M61.2,136.5h60c0.8,0,1.5,0.7,1.5,1.5l0,0c0,0.8-0.7,1.5-1.5,1.5h-60c-0.8,0-1.5-0.7-1.5-1.5l0,0
		C59.7,137.2,60.4,136.5,61.2,136.5z"/>
	<path class="st1" d="M130.9,79.7h3.4c0.8,0,1.5,0.7,1.5,1.5l0,0c0,0.8-0.7,1.5-1.5,1.5h-3.4c-0.8,0-1.5-0.7-1.5-1.5l0,0
		C129.4,80.4,130.1,79.7,130.9,79.7z"/>
	<path class="st0" d="M125.8,66.7L125.8,66.7c0.7,0,1.3,0.6,1.3,1.3v0.3c0,0.7-0.6,1.3-1.3,1.3l0,0c-0.7,0-1.3-0.6-1.3-1.3V68
		C124.5,67.3,125.1,66.7,125.8,66.7z"/>
	<path class="st0" d="M132.6,66.7L132.6,66.7c0.7,0,1.4,0.6,1.4,1.3v0.3c0,0.7-0.6,1.3-1.3,1.3l0,0c-0.7,0-1.3-0.6-1.3-1.3V68
		C131.3,67.3,131.9,66.7,132.6,66.7z"/>
	<path class="st0" d="M139.3,66.7L139.3,66.7c0.7,0,1.4,0.6,1.4,1.3v0.3c0,0.7-0.6,1.3-1.3,1.3l0,0c-0.7,0-1.3-0.6-1.3-1.3V68
		C138,67.3,138.6,66.7,139.3,66.7z"/>
	<polygon class="st1" points="35.1,66.5 20.2,76.2 35.1,86.1 36.7,83.7 25.6,76.2 36.7,69.1 	"/>
	<polygon class="st1" points="75.8,86.2 90.7,76.5 75.8,66.6 74.2,69 85.3,76.5 74.2,83.6 	"/>
	<path class="st1" d="M41.7,86.2l8.4-20.7c0.3-0.8,1.2-1.1,2-0.8l0,0c0.8,0.3,1.1,1.2,0.8,2l-8.4,20.7c-0.3,0.8-1.2,1.1-2,0.8l0,0
		C41.7,87.8,41.4,86.9,41.7,86.2z"/>
	<path class="st1" d="M51.3,84c0,0.9,0.7,1.6,1.6,1.6c0.9,0,1.6-0.7,1.6-1.6s-0.7-1.6-1.6-1.6S51.3,83.1,51.3,84z"/>
	<path class="st1" d="M61.5,84c0-0.9-0.7-1.6-1.6-1.6c-0.9,0-1.6,0.7-1.6,1.6s0.7,1.6,1.6,1.6S61.5,84.9,61.5,84z"/>
	<path class="st1" d="M68.8,84c0-0.9-0.7-1.6-1.6-1.6s-1.6,0.7-1.6,1.6s0.7,1.6,1.6,1.6S68.8,84.9,68.8,84z"/>
	<path class="st1" d="M122.8,9h13c0.8,0,1.5,0.7,1.5,1.5l0,0c0,0.8-0.7,1.5-1.5,1.5h-13c-0.8,0-1.5-0.7-1.5-1.5l0,0
		C121.3,9.7,122,9,122.8,9z"/>
	<path class="st0" d="M142.3,12.1c0.9,0,1.6-0.7,1.6-1.6s-0.7-1.6-1.6-1.6c-0.9,0-1.6,0.7-1.6,1.6S141.4,12.1,142.3,12.1z"/>
	<path class="st0" d="M128.2,21.4h-13.9c-0.6,0-1,0.4-1,1v10.3c0,0.6,0.4,1,1,1h13.9c0.6,0,1-0.4,1-1V22.4
		C129.2,21.8,128.8,21.4,128.2,21.4z M126.2,31.7h-9.9c-0.6,0-1-0.4-1-1v-6.3c0-0.6,0.4-1,1-1h9.9c0.6,0,1,0.4,1,1v6.3
		C127.2,31.3,126.8,31.7,126.2,31.7z"/>
	<path class="st0" d="M128.2,35.4h-13.9c-0.6,0-1,0.4-1,1v10.3c0,0.6,0.4,1,1,1h13.9c0.6,0,1-0.4,1-1V36.4
		C129.2,35.8,128.8,35.4,128.2,35.4z M126.2,45.7h-9.9c-0.6,0-1-0.4-1-1v-6.3c0-0.6,0.4-1,1-1h9.9c0.6,0,1,0.4,1,1v6.3
		C127.2,45.3,126.8,45.7,126.2,45.7z"/>
	<path class="st0" d="M129.2,60.7V50.4c0-0.6-0.4-1-1-1h-13.9c-0.6,0-1,0.4-1,1v10.3c0,0.6,0.4,1,1,1h13.9
		C128.8,61.7,129.2,61.3,129.2,60.7z M116.3,51.4h9.9c0.6,0,1,0.4,1,1v6.3c0,0.6-0.4,1-1,1h-9.9c-0.6,0-1-0.4-1-1v-6.3
		C115.3,51.8,115.7,51.4,116.3,51.4z"/>
	<path class="st1" d="M136.3,52h13.1c0.8,0,1.5,0.7,1.5,1.5l0,0c0,0.8-0.7,1.5-1.5,1.5h-13.1c-0.8,0-1.5-0.7-1.5-1.5l0,0
		C134.8,52.7,135.5,52,136.3,52z"/>
	<path class="st1" d="M136.3,58.2h13.1c0.8,0,1.5,0.7,1.5,1.5l0,0c0,0.8-0.7,1.5-1.5,1.5h-13.1c-0.8,0-1.5-0.7-1.5-1.5l0,0
		C134.8,58.9,135.5,58.2,136.3,58.2z"/>
	<path class="st1" d="M136.3,28h13.1c0.8,0,1.5,0.7,1.5,1.5l0,0c0,0.8-0.7,1.5-1.5,1.5h-13.1c-0.8,0-1.5-0.7-1.5-1.5l0,0
		C134.8,28.7,135.5,28,136.3,28z"/>
	<path class="st1" d="M142,21.9h7.4c0.8,0,1.5,0.7,1.5,1.5l0,0c0,0.8-0.7,1.5-1.5,1.5H142c-0.8,0-1.5-0.7-1.5-1.5l0,0
		C140.5,22.6,141.2,21.9,142,21.9z"/>
	<path class="st1" d="M136.7,25c0.9,0,1.6-0.7,1.6-1.6s-0.7-1.6-1.6-1.6s-1.6,0.7-1.6,1.6C135.1,24.3,135.8,25,136.7,25z"/>
	<path class="st1" d="M136.3,43.1h13.1c0.8,0,1.5,0.7,1.5,1.5l0,0c0,0.8-0.7,1.5-1.5,1.5h-13.1c-0.8,0-1.5-0.7-1.5-1.5l0,0
		C134.8,43.8,135.5,43.1,136.3,43.1z"/>
	<path class="st1" d="M142,36.9h7.4c0.8,0,1.5,0.7,1.5,1.5l0,0c0,0.8-0.7,1.5-1.5,1.5H142c-0.8,0-1.5-0.7-1.5-1.5l0,0
		C140.5,37.6,141.2,36.9,142,36.9z"/>
	<path class="st1" d="M135.1,38.4c0,0.9,0.7,1.6,1.6,1.6s1.6-0.7,1.6-1.6c0-0.9-0.7-1.6-1.6-1.6S135.1,37.5,135.1,38.4z"/>
</g>
</svg>
