<?xml version="1.0" encoding="utf-8"?>
<!-- Generator: Adobe Illustrator 23.0.2, SVG Export Plug-In . SVG Version: 6.00 Build 0)  -->
<svg version="1.1" id="Layer_1" xmlns="http://www.w3.org/2000/svg" xmlns:xlink="http://www.w3.org/1999/xlink" x="0px" y="0px"
	 viewBox="0 0 512 419" style="enable-background:new 0 0 512 419;" xml:space="preserve">
<style type="text/css">
	.st0{fill:#185BD8;}
</style>
<title>education</title>
<path class="st0" d="M507.1,95.2L345.2,33.5c-3.9-1.5-8.3,0.5-9.8,4.4s0.5,8.3,4.4,9.8l0,0L483,102.3l-99.2,37.8L259.1,83.6
	c-3.8-1.7-8.3,0-10.1,3.8s0,8.3,3.8,10.1l111,50.3L256,188.9L29,102.3l227-86.6L312,37c3.9,1.5,8.3-0.5,9.8-4.4s-0.5-8.3-4.4-9.8
	L258.7,0.5c-1.7-0.7-3.7-0.7-5.4,0L4.9,95.2C2,96.3,0,99.2,0,102.3V137c0,3.2,1.9,6,4.9,7.1l77.6,29.6V200c-0.2,4.2,3.1,7.7,7.3,7.9
	c4.2,0.2,7.7-3.1,7.9-7.3c0-0.2,0-0.4,0-0.6v-20.5l155.6,59.3c1.7,0.7,3.7,0.7,5.4,0L376,194.1v120.3
	c-89.6,47.2-198.5,37.5-278.3-24.6v-59.3c-0.2-4.2-3.7-7.5-7.9-7.3c-4,0.1-7.2,3.3-7.3,7.3v63c0,2.3,1.1,4.5,2.8,5.9
	c82.5,66.1,195.8,78.6,290.7,32.1v30.8c-15.4,4.2-24.5,20.1-20.3,35.5s20.1,24.5,35.5,20.3s24.5-20.1,20.3-35.5
	c-2.7-9.9-10.4-17.6-20.3-20.3v-38.8c12.4-7.1,24.3-15.1,35.5-24c1.8-1.4,2.8-3.6,2.9-5.9V173.7l77.6-29.6c3-1.1,4.9-4,4.9-7.1
	v-34.7C512,99.2,510.1,96.3,507.1,95.2z M397.3,390.2c0,7.6-6.1,13.7-13.7,13.7s-13.7-6.1-13.7-13.7s6.1-13.7,13.7-13.7l0,0
	C391.2,376.5,397.3,382.6,397.3,390.2L397.3,390.2z M15.2,113.4l233.2,88.9v18.5l-233.2-89C15.2,131.8,15.2,113.4,15.2,113.4z
	 M263.6,220.7v-18.5L376,159.4v18.4L263.6,220.7z M414.3,289.8c-7.4,5.8-15.1,11.1-23.1,16V188.3l23.1-8.8V289.8z M391.2,172v-18.4
	l105.6-40.2v18.4L391.2,172z"/>
</svg>
