<?xml version="1.0" encoding="utf-8"?>
<!-- Generator: Adobe Illustrator 25.0.1, SVG Export Plug-In . SVG Version: 6.00 Build 0)  -->
<svg version="1.1" id="Layer_1" xmlns="http://www.w3.org/2000/svg" xmlns:xlink="http://www.w3.org/1999/xlink" x="0px" y="0px"
	 viewBox="0 0 156 143.4" style="enable-background:new 0 0 156 143.4;" xml:space="preserve">
<style type="text/css">
	.st0{fill:#B8D3FF;}
	.st1{fill:#6EA6FF;}
</style>
<g>
	<path class="st0" d="M48.7,121c-3.4,0-6.2-2.5-6.2-6.2v-4.9c0-2.5,1.1-6.2,6.2-6.2h39.6c2.1,0,2.7-1.1,3.1-1.7
		c0.4-0.9,0.4-1.8,0.4-1.8v-3.6c0-3.6-2.2-4.8-4.8-4.8H70.5c-0.7,0-1.3-0.6-1.3-1.3l0,0c0-0.7,0.6-1.3,1.3-1.3H86
		c4.5,0,8.5,2.3,8.5,6.2v4.9c0,2.5-1.7,6.2-6.2,6.2H48.7c-2.1,0-2.7,1.1-3.1,1.7c-0.4,0.9-0.4,1.8-0.4,1.8v3.6c0,3.7,1,4.8,4.8,4.8
		h47.6c0.7,0,1.3,0.6,1.3,1.3l0,0c0,0.7-0.6,1.3-1.3,1.3H48.7z"/>
	<path class="st0" d="M30.3,61.2V41.5c0-0.7,0.6-1.3,1.3-1.3h7.5c0.7,0,1.3,0.6,1.3,1.3l0,0c0,0.7-0.6,1.3-1.3,1.3h-4.8
		c-0.7,0-1.3,0.6-1.3,1.3v17.1c0,0.7-0.6,1.3-1.3,1.3h-0.1C30.9,62.5,30.3,61.9,30.3,61.2z"/>
	<path class="st0" d="M31.6,69.4L31.6,69.4c0.7,0,1.4,0.6,1.4,1.3V71c0,0.7-0.6,1.3-1.3,1.3l0,0c-0.7,0-1.3-0.6-1.3-1.3v-0.3
		C30.3,70,30.9,69.4,31.6,69.4z"/>
	<path class="st0" d="M52.4,89.1h10.1c0.7,0,1.3,0.6,1.3,1.3l0,0c0,0.7-0.6,1.3-1.3,1.3H52.4c-0.7,0-1.3-0.6-1.3-1.3l0,0
		C51.1,89.7,51.7,89.1,52.4,89.1z"/>
	<path class="st0" d="M31.6,79.2L31.6,79.2c0.7,0,1.4,0.6,1.4,1.3v0.3c0,0.7-0.6,1.3-1.3,1.3l0,0c-0.7,0-1.3-0.6-1.3-1.3v-0.3
		C30.3,79.8,30.9,79.2,31.6,79.2z"/>
	<path class="st0" d="M12,49.9L12,49.9c0.8,0,1.4,0.6,1.4,1.3v0.3c0,0.7-0.6,1.3-1.3,1.3l0,0c-0.7,0-1.3-0.6-1.3-1.3v-0.3
		C10.7,50.5,11.3,49.9,12,49.9z"/>
	<path class="st0" d="M12,59.6L12,59.6c0.7,0,1.4,0.6,1.4,1.3v0.3c0,0.7-0.6,1.3-1.3,1.3l0,0c-0.7,0-1.3-0.6-1.3-1.3v-0.3
		C10.7,60.2,11.3,59.6,12,59.6z"/>
	<path class="st0" d="M12,30.3L12,30.3c0.7,0,1.4,0.6,1.4,1.3v10.1c0,0.7-0.6,1.3-1.3,1.3l0,0c-0.7,0-1.3-0.6-1.3-1.3V31.6
		C10.7,30.9,11.3,30.3,12,30.3z"/>
	<path class="st1" d="M1,140.5V20.7h34.6v2.7H3.7v49.7l1.5-1.3c1.9-1.5,4.3-2.4,6.9-2.4s4.9,0.8,6.9,2.4l1.5,1.3V30.5h83v-7.1H44.8
		v-2.7h58.7V0.2H116v20.5h39.1v119.9H1V140.5z M3.7,137.9h148.7V23.3H116v7.1h29.3v100.4h-10.2v-2.7h7.5v-95H116v74.7l-6.2,12.5
		l-6.2-12.5V54.7h2.7V107l3.5,7.2l3.5-7.1V12.7h-7.1v32.8h-2.7V33.1H23.2v95h102.7v2.7H20.5V88.1L19,89.4c-1.9,1.5-4.3,2.4-6.9,2.4
		S7.2,91,5.2,89.4l-1.5-1.3C3.7,88.1,3.7,137.9,3.7,137.9z M12.1,72.2c-4.6,0-8.4,3.8-8.4,8.4S7.5,89,12.1,89s8.4-3.8,8.4-8.4
		C20.5,75.9,16.7,72.2,12.1,72.2z M106.2,10h7.1V2.9h-7.1V10z"/>
	<path class="st0" d="M12,118.2L12,118.2c0.7,0,1.4,0.6,1.4,1.3v10.1c0,0.7-0.6,1.4-1.3,1.4l0,0c-0.7,0-1.3-0.6-1.3-1.4v-10.1
		C10.7,118.8,11.3,118.2,12,118.2z"/>
	<path class="st0" d="M12,98.7L12,98.7c0.7,0,1.4,0.6,1.4,1.3v0.3c0,0.7-0.6,1.3-1.3,1.3l0,0c-0.7,0-1.3-0.6-1.3-1.3V100
		C10.7,99.3,11.3,98.7,12,98.7z"/>
	<path class="st0" d="M12,108.4L12,108.4c0.7,0,1.4,0.6,1.4,1.3v0.3c0,0.7-0.6,1.3-1.3,1.3l0,0c-0.7,0-1.3-0.6-1.3-1.3v-0.3
		C10.7,109,11.3,108.4,12,108.4z"/>
</g>
</svg>
