<svg xmlns="http://www.w3.org/2000/svg" viewBox="0 0 24 24"><path d="M12,10a2.1,2.1,0,1,1,0,4.2,2.18,2.18,0,0,1-2.1-2.1A2.11,2.11,0,0,1,12,10Zm2.6-3.1H9.4a2.49,2.49,0,0,0-1.9.7,2.41,2.41,0,0,0-.7,1.8v5.2a2.57,2.57,0,0,0,.8,2,2.94,2.94,0,0,0,1.9.7h5.2a2.49,2.49,0,0,0,1.9-.7,2.56,2.56,0,0,0,.8-1.9V9.5a2.49,2.49,0,0,0-.7-1.9A3.14,3.14,0,0,0,14.6,6.9ZM12,15.4a3.3,3.3,0,0,1,0-6.6,3.3,3.3,0,1,1,0,6.6Zm3.4-5.9a.74.74,0,0,1-.8-.8.8.8,0,0,1,1.6,0C16.1,9.2,15.8,9.5,15.4,9.5ZM0,2V22a2,2,0,0,0,2,2H22a2,2,0,0,0,2-2V2a2,2,0,0,0-2-2H2A2,2,0,0,0,0,2ZM18.4,14.8a3.87,3.87,0,0,1-1,2.7,3.78,3.78,0,0,1-2.7,1H9.4a3.78,3.78,0,0,1-2.7-1,3.34,3.34,0,0,1-1.1-2.7V9.5A3.62,3.62,0,0,1,9.4,5.7h5.2a4.06,4.06,0,0,1,2.7,1,3.47,3.47,0,0,1,1,2.7C18.4,9.5,18.4,14.8,18.4,14.8Z"/></svg>