<?xml version="1.0" encoding="utf-8"?>
<!-- Generator: Adobe Illustrator 23.0.2, SVG Export Plug-In . SVG Version: 6.00 Build 0)  -->
<svg version="1.1" id="Layer_1" xmlns="http://www.w3.org/2000/svg" xmlns:xlink="http://www.w3.org/1999/xlink" x="0px" y="0px"
	 viewBox="0 0 512 601.1" style="enable-background:new 0 0 512 601.1;" xml:space="preserve">
<style type="text/css">
	.st0{fill:#185BD8;}
</style>
<g id="Capa_1">
	<g>
		<path class="st0" d="M301.7,208.1c-5,0-9.1,4.1-9.1,9.1s4.1,9.1,9.1,9.1s9.1-4.1,9.1-9.1C310.8,212.3,306.7,208.1,301.7,208.1z
			 M210.3,208.1c-5,0-9.1,4.1-9.1,9.1s4.1,9.1,9.1,9.1s9.1-4.1,9.1-9.1C219.5,212.3,215.4,208.1,210.3,208.1z M454.2,405.3
			c7.9-11.8,11.8-26.5,11.8-39.2c0-19.2-8.5-37-23.1-49c3.2-7.8,4.8-15.8,4.8-24c0-25.5-14.9-49.1-36.9-60.2
			c3.4-27.8-14.8-53.2-41.5-59.7c-10.5-24.3-33.9-40.8-58.5-40.8c-22.9,0-43.5,13.3-54.8,32.9c-11.3-19.5-31.9-32.9-54.8-32.9
			c-24.7,0-48,16.5-58.5,40.8c-26.9,6.6-44.9,32.1-41.5,59.7c-22,11-36.9,34.7-36.9,60.2c0,8.2,1.6,16.3,4.8,24
			c-14.6,12-23.1,29.8-23.1,49c0,12.8,3.9,27.5,11.8,39.2C50.1,416,46,428.7,46,441.9c0,17,6.8,33.2,19.1,45.2
			c-6.3,37.9,23.9,76.2,63.1,76.2c0.3,0,0.5,0,0.8,0c13,22.4,37.1,36.5,63.1,36.5c27.1,0,51.3-16.3,63.9-39.7
			c12.6,23.5,36.8,39.7,63.9,39.7c26,0,50.1-14.2,63.1-36.5c0.3,0,0.5,0,0.8,0c34.6,0,63.9-30.5,63.9-66.7c0-3.1-0.3-6.2-0.8-9.6
			c12.2-12.1,19.1-28.2,19.1-45.2C466,428.7,461.9,416,454.2,405.3z M246.9,270.6c-5.4-3.1-11.6-4.9-18.3-4.9c-5,0-9.1,4.1-9.1,9.1
			s4.1,9.1,9.1,9.1c10,0,18.3,8.2,18.3,18.3v173.7c-13.4-15.2-33-24.8-54.8-24.8c-5,0-9.1,4.1-9.1,9.1s4.1,9.1,9.1,9.1
			c30.2,0,54.8,24.6,54.8,54.8c0,31.1-25.1,57.5-54.8,57.5c-21.2,0-40.6-12.5-49.6-31.9c-1.6-3.6-5.4-5.7-9.3-5.2
			c-0.6,0.1-1.3,0.2-1.9,0.3c-26,3.6-55.2-25.8-47.3-58.8c0.8-3.4-0.4-6.9-3-9.1c-10.7-8.9-16.7-21.5-16.7-35
			c0-8.3,2.4-16.3,6.7-23.5c11,8.9,24.6,14.3,39,14.3c5,0,9.1-4.1,9.1-9.1s-4.1-9.1-9.1-9.1c-24.7,0-45.7-22.6-45.7-48.4
			c0-15.6,7.9-30,21.4-38.4c4.1-2.6,5.5-7.9,3-12.2c-4-7.1-6.1-14.7-6.1-22.4c0-24.7,20.1-48.4,45.7-48.4
			c24.3,0,45.7,22.6,45.7,48.4c0,5,4.1,9.1,9.1,9.1s9.1-4.1,9.1-9.1c0-36.2-29.3-66.7-63.9-66.7c-3,0-6.1,0.3-9.1,0.7
			c0-0.3,0-0.5,0-0.7c0-20.4,16.5-36.5,36.5-36.5c9.8,0,18.9,3.8,25.8,10.7c3.6,3.6,9.3,3.6,12.9,0c3.6-3.6,3.6-9.3,0-12.9
			c-8.4-8.3-19-13.6-30.4-15.4c8.1-12,21.5-21.6,37.3-21.6c24.3,0,45.7,22.6,45.7,48.4v71.5H246.9z M402.1,432.8
			c14.4,0,28-5.4,39-14.3c4.4,7.1,6.7,15.2,6.7,23.5c0,13.4-6,26.1-16.6,35c-2.6,2.2-3.8,5.8-3,9.1c1,4,1.5,7.4,1.5,10.7
			c0,28.3-25.7,51.2-48.8,48.1c-0.6-0.1-1.3-0.2-1.9-0.3c-3.9-0.5-7.7,1.6-9.3,5.2c-8.9,19.4-28.4,31.9-49.6,31.9
			c-29.7,0-54.8-26.4-54.8-57.5c0-30.2,24.6-54.8,54.8-54.8c5,0,9.1-4.1,9.1-9.1s-4.1-9.1-9.1-9.1c-21.8,0-41.4,9.6-54.8,24.8V302.2
			c0-10,8.2-18.3,18.3-18.3c5,0,9.1-4.1,9.1-9.1s-4.1-9.1-9.1-9.1c-6.7,0-12.9,1.8-18.3,4.9V199c0-25.7,21.4-48.4,45.7-48.4
			c15.8,0,29.1,9.7,37.2,21.6c-11.4,1.7-21.9,7-30.3,15.4c-3.6,3.6-3.6,9.3,0,12.9c3.6,3.6,9.3,3.6,12.9,0
			c6.9-6.8,16.1-10.7,25.8-10.7c20.1,0,36.5,16.3,36.5,36.5c0,0.3,0,0.5,0,0.7c-3-0.5-6-0.7-9.1-0.7c-34.6,0-63.9,30.5-63.9,66.7
			c0,5,4.1,9.1,9.1,9.1s9.1-4.1,9.1-9.1c0-25.7,21.4-48.4,45.7-48.4c25.6,0,45.7,23.7,45.7,48.4c0,7.7-2.1,15.2-6.1,22.4
			c-2.4,4.2-1.1,9.6,3,12.2c13.3,8.5,21.4,22.8,21.4,38.4c0,25.8-20.9,48.4-45.7,48.4c-5,0-9.1,4.1-9.1,9.1
			C393,428.6,397.1,432.8,402.1,432.8z M226.3,327.8c-3.4-3.7-9.1-4.1-12.9-0.7c-29.3,26.2-76.1,5.2-76.1-34.1c0-5-4.1-9.1-9.1-9.1
			s-9.1,4.1-9.1,9.1c0,31.7,23.2,58.1,53.5,63.1c-3.6,11-13.9,19.1-26.1,19.1c-5,0-9.1,4.1-9.1,9.1s4.1,9.1,9.1,9.1
			c22.3,0,40.8-16,44.8-37.1c12.7-1.6,24.7-7.1,34.3-15.7C229.3,337.3,229.6,331.6,226.3,327.8z M128.2,487.5c-5,0-9.1,4.1-9.1,9.1
			s4.1,9.1,9.1,9.1c24.3,0,45.7,22.6,45.7,48.4c0,5,4.1,9.1,9.1,9.1s9.1-4.1,9.1-9.1C192.1,518,162.8,487.5,128.2,487.5z
			 M201.2,414.5c-31,0-57.5,17-71.5,41.6c-2.5,4.4-0.9,10,3.5,12.4c4.4,2.5,10,0.9,12.4-3.5c10.9-19.2,31.6-32.3,55.6-32.3
			c5,0,9.1-4.1,9.1-9.1C210.3,418.6,206.2,414.5,201.2,414.5z M365.6,375.2c-12.2,0-22.6-8-26.1-19.1c30.3-5,53.5-31.3,53.5-63.1
			c0-5-4.1-9.1-9.1-9.1s-9.1,4.1-9.1,9.1c0,25.2-20.5,45.7-45.7,45.7c-11.2,0-22.1-4.1-30.4-11.6c-3.7-3.4-9.5-3-12.9,0.7
			c-3.4,3.7-3,9.5,0.7,12.9c9.7,8.7,21.6,14.1,34.3,15.7c4,21.1,22.6,37.1,44.8,37.1c5,0,9.1-4.1,9.1-9.1
			C374.8,379.3,370.6,375.2,365.6,375.2z M383.8,487.5c-34.6,0-63.9,30.5-63.9,66.7c0,5,4.1,9.1,9.1,9.1s9.1-4.1,9.1-9.1
			c0-25.7,21.4-48.4,45.7-48.4c5,0,9.1-4.1,9.1-9.1S388.8,487.5,383.8,487.5z M382.3,456.1c-14-24.7-40.4-41.6-71.5-41.6
			c-5,0-9.1,4.1-9.1,9.1s4.1,9.1,9.1,9.1c24,0,44.7,13.1,55.6,32.4c2.5,4.4,8,5.9,12.4,3.5C383.2,466.1,384.7,460.5,382.3,456.1z"/>
	</g>
</g>
<g>
	<path class="st0" d="M256,101.6c-3.3,0-6-2.7-6-6V11.7c0-3.3,2.7-6,6-6s6,2.7,6,6v83.9C262,98.9,259.3,101.6,256,101.6z"/>
</g>
<g>
	<path class="st0" d="M324.2,100.6c-0.7,0-1.4-0.1-2.1-0.4c-3.1-1.1-4.7-4.6-3.6-7.7l22.8-62.7c1.1-3.1,4.6-4.7,7.7-3.6
		c3.1,1.1,4.7,4.6,3.6,7.7l-22.8,62.7C329,99.1,326.7,100.6,324.2,100.6z"/>
</g>
<g>
	<path class="st0" d="M388.1,130.5c-1.4,0-2.7-0.5-3.9-1.4c-2.5-2.1-2.9-5.9-0.7-8.5l48.8-57.8c2.1-2.5,5.9-2.9,8.5-0.7
		c2.5,2.1,2.9,5.9,0.7,8.5l-48.8,57.8C391.5,129.8,389.8,130.5,388.1,130.5z"/>
</g>
<g>
	<path class="st0" d="M450.8,175.4c-2.1,0-4.1-1.1-5.2-3c-1.7-2.9-0.7-6.5,2.2-8.2l46.6-27c2.9-1.7,6.5-0.7,8.2,2.2
		c1.7,2.9,0.7,6.5-2.2,8.2l-46.6,27C452.8,175.2,451.8,175.4,450.8,175.4z"/>
</g>
<g>
	<path class="st0" d="M468.6,250c-3,0-5.5-2.2-5.9-5.2c-0.4-3.3,1.9-6.3,5.2-6.7l36.7-4.9c3.3-0.4,6.3,1.9,6.7,5.2
		c0.4,3.3-1.9,6.3-5.2,6.7l-36.7,4.9C469.2,249.9,468.9,250,468.6,250z"/>
</g>
<g>
	<path class="st0" d="M34.3,250c-0.3,0-0.7,0-1-0.1L4.7,245c-3.3-0.6-5.5-3.7-4.9-6.9c0.6-3.3,3.7-5.5,6.9-4.9l28.6,4.9
		c3.3,0.6,5.5,3.7,4.9,6.9C39.7,247.9,37.1,250,34.3,250z"/>
</g>
<g>
	<path class="st0" d="M60.6,176.5c-1,0-2-0.3-3-0.8l-49-28c-2.9-1.6-3.9-5.3-2.2-8.2c1.6-2.9,5.3-3.9,8.2-2.2l49,28
		c2.9,1.6,3.9,5.3,2.2,8.2C64.8,175.4,62.7,176.5,60.6,176.5z"/>
</g>
<g>
	<path class="st0" d="M122.5,130.5c-1.7,0-3.4-0.7-4.6-2.1l-49-57.8c-2.1-2.5-1.8-6.3,0.7-8.5c2.5-2.1,6.3-1.8,8.5,0.7l49,57.8
		c2.1,2.5,1.8,6.3-0.7,8.5C125.3,130.1,123.9,130.5,122.5,130.5z"/>
</g>
<g>
	<path class="st0" d="M186.8,101c-2.4,0-4.7-1.5-5.6-3.9L158,34.4c-1.1-3.1,0.4-6.6,3.5-7.7c3.1-1.1,6.6,0.4,7.7,3.5l23.2,62.7
		c1.1,3.1-0.4,6.6-3.5,7.7C188.2,100.8,187.5,101,186.8,101z"/>
</g>
</svg>
