<?xml version="1.0" encoding="utf-8"?>
<!-- Generator: Adobe Illustrator 23.0.2, SVG Export Plug-In . SVG Version: 6.00 Build 0)  -->
<svg version="1.1" id="Layer_1" xmlns="http://www.w3.org/2000/svg" xmlns:xlink="http://www.w3.org/1999/xlink" x="0px" y="0px"
	 viewBox="0 0 512 511.9" style="enable-background:new 0 0 512 511.9;" xml:space="preserve">
<style type="text/css">
	.st0{fill:#185BD8;}
	.st1{fill:none;stroke:#185BD8;stroke-width:18;stroke-linecap:round;stroke-miterlimit:10;}
	.st2{fill:none;stroke:#185BD8;stroke-width:18;stroke-linecap:round;stroke-miterlimit:10;stroke-dasharray:24.5508,49.1016;}
</style>
<title>travel</title>
<path class="st0" d="M508.2,372.8c-2.9-3.7-8.2-4.4-12-1.5l0,0l-28.8,22.4l-38.4-23c-4-2.4-9.3-1.1-11.7,2.9
	c-2.4,4-1.1,9.3,2.9,11.7L453,405l-30,23.2l-21.3-7.1c-4.5-1.5-9.3,0.9-10.8,5.4s0.9,9.3,5.4,10.8l19.8,6.6v19.5
	c0.2,4.7,4.1,8.4,8.8,8.2c4.5-0.2,8.1-3.8,8.2-8.2V442l30.7-23.9l12.6,31.4c1.3,3.2,4.4,5.4,7.9,5.4c1.1,0,2.2-0.2,3.2-0.6
	c4.4-1.8,6.5-6.7,4.8-11.1l-14.4-36l28.8-22.4C510.4,381.9,511.1,376.5,508.2,372.8L508.2,372.8z"/>
<path class="st0" d="M64.8,310.7c0.2,0.7,0.4,1.4,0.6,2.1c0.3,1.2,0.7,2.4,1.1,3.6c0.2,0.5,0.3,1,0.5,1.5c0.3,0.9,0.6,1.7,0.8,2.6
	c0.2,0.5,0.3,1.1,0.5,1.6c0.3,1,0.7,1.9,1,2.9l0.7,2c0.3,0.9,0.7,1.8,1,2.7c0.3,0.7,0.5,1.3,0.8,2l0.7,1.7
	C93.9,385,136.1,425,188.7,443.7l0.6,0.2l2.8,1l1.4,0.4c1.2,0.4,2.4,0.8,3.6,1.1l2.4,0.7l1.7,0.5c1,0.3,1.9,0.5,2.9,0.8l1.2,0.3
	c1.3,0.3,2.6,0.7,4,1l1.4,0.3l2.7,0.6l1.8,0.4l0.4,0.1h0.1c12.6,2.5,25.4,3.7,38.3,3.7c108.2,0,196.2-88,196.3-196.2l0,0
	c0-1.5,0-3-0.1-4.5v-1.2c0-1.1-0.1-2.1-0.1-3.2c0-0.5,0-1-0.1-1.6c-0.1-1.2-0.1-2.4-0.2-3.7s-0.2-2.2-0.3-3.2c0-0.1,0-0.3,0-0.4
	c-4.2-46.4-24.9-89.7-58.2-122.3l-0.7-0.7l-1.8-1.8c-0.9-0.9-1.9-1.8-2.8-2.6l-0.2-0.2c-1.1-1-2.2-1.9-3.3-2.9l-0.3-0.2
	c-13-11.3-27.5-20.8-43-28.3l-1.1-0.5l-1.8-0.9h-0.1c-58.4-27-126.4-23.6-181.8,9.1c-0.3,0.1-0.6,0.3-0.9,0.4
	c-42.7,25.4-74.1,66-88,113.7c-0.2,0.5-0.3,1-0.5,1.6c-0.3,0.9-0.5,1.9-0.8,2.8s-0.5,1.8-0.7,2.7l-0.6,2.3c-0.3,1.2-0.6,2.4-0.8,3.6
	c-0.1,0.5-0.2,1.1-0.3,1.6c-0.8,3.7-1.4,7.5-2,11.3c0,0.2-0.1,0.4-0.1,0.6c-0.2,1.7-0.5,3.4-0.7,5.2c0,0.3-0.1,0.6-0.1,0.9
	c-0.2,1.8-0.4,3.5-0.5,5.3c0,0.2,0,0.3,0,0.5c-0.5,5.4-0.7,10.9-0.7,16.5c0,17.2,2.2,34.3,6.7,50.9v0.1
	C64.6,310,64.7,310.3,64.8,310.7z M84.9,317.8c-0.6-1.7-1.2-3.5-1.8-5.3l33.5-12.6c3.6-1.3,7.5,0.5,8.9,4c0.3,0.8,0.4,1.6,0.4,2.4
	v12.8c0,18.4,10.9,35,27.8,42.2l26.3,11.3c6.1,2.6,11.7,6.4,16.4,11.1l5.2,5.1c10.6,10.6,14.6,26,10.5,40.4l-0.9,3.2l-0.3-0.1
	c-58.3-14.5-105.6-57.3-125.8-114C85,318.1,84.9,318,84.9,317.8L84.9,317.8z M311,312.9c-1.9-2-4.5-3.1-7.2-3.1
	c-9.6,0-18.9-4.6-25.6-12.7c-8.3-10-20.2-18.6-28.8-24c-4-2.5-7.2-6.1-9.3-10.3l-9.8-19.7c-1.3-2.5-1.8-5.3-1.4-8
	c2.1-17.5,11.5-40,17.4-52.6l7.7,12.9c5,8.5,15,12.8,24.6,10.7c9.4-1.8,16.6-9.4,17.9-18.9l0.2-1.4c1.1-9.8,7.6-18.3,16.7-22
	l20.6-8.2c0.4-0.2,0.9-0.4,1.2-0.6c16.2-9.8,14.1-33.4,9.9-50.6l1.4,0.8l1.1,0.7c3.2,1.9,6.3,4,9.3,6.1l1.2,0.8
	c0.9,0.6,1.7,1.2,2.6,1.9l1.5,1.1c0.8,0.6,1.6,1.2,2.3,1.8c1.2,0.9,2.4,1.9,3.5,2.8c0.5,0.4,0.9,0.8,1.3,1.1c1,0.8,1.9,1.6,2.8,2.4
	l1,0.9c35.4,31.7,56.9,76.1,59.7,123.6c0,0.1,0,0.1,0,0.2c0.1,1.9,0.2,3.8,0.2,5.6v0.1l-15,11.4c-3.9,3-9.5,2.1-12.5-1.8
	c-0.2-0.2-0.3-0.5-0.5-0.7l-8.9-14.8c-3.9-6.5-12.4-8.7-18.9-4.7c-3.3,1.9-5.6,5.2-6.4,8.9l-14.2,63.9c-0.1,0.6-0.2,1.2-0.2,1.9
	c0,22.2-4.9,38-14.1,45.8c-5.1,4.3-11.8,6.3-18.4,5.5c-1.1-0.2-1.9,0.7-3.7-1.2c-5.3-5.7-8-25.5-6.5-48.2
	C313.8,317.5,312.9,314.8,311,312.9z M323.9,93.5c5.6,14.6,11.4,40.3,3,46.5l-19.8,7.9c-15,6.1-25.5,19.9-27.4,35.9l-0.1,1
	c-0.3,2.3-2.1,4.2-4.4,4.6c-2.6,0.6-5.2-0.5-6.6-2.8l-8.5-14.1c-4.6-7.7-14.6-10.3-22.3-5.7c-2.8,1.7-5,4.1-6.4,7.1
	c-7.6,16.3-17.2,39.8-19.5,59.2c-0.7,6,0.4,12.2,3.1,17.6l9.8,19.7c3.5,7,8.9,12.9,15.5,17.1c6.1,3.9,17.5,11.7,24.7,20.4
	c7.8,9.7,18.9,16.2,31.2,18.3c-0.5,16,0.6,42.3,11.5,53.9c3.6,3.9,8.6,6.3,13.9,6.5c1.6,0.2,3.2,0.3,4.8,0.3
	c9.7,0.1,19.1-3.3,26.6-9.4c13.5-11.1,20.4-30.7,20.5-58.2l12.2-55l4.6,7.7c7.4,12.3,23.4,16.3,35.7,8.9c0.8-0.5,1.5-0.9,2.2-1.5
	l4.1-3.1c-9,90.5-85.5,161.5-178.4,161.5c-8.7,0-17.3-0.6-25.9-1.9l0.5-1.8c5.8-20.3,0.1-42.2-14.8-57.1l-5.2-5.2
	c-6.2-6.3-13.6-11.3-21.8-14.7l-26.3-11.3c-10.6-4.5-17.5-15-17.5-26.5v-12.9c0-13.3-10.8-24-24-24c-2.9,0-5.7,0.5-8.4,1.5l-31.9,12
	c-2.6-12.3-3.9-24.8-3.9-37.4c0-1.4,0-2.8,0-4.2l47.7-18.8c12.7-5.1,19.2-19.2,14.9-32.1c-1.1-3.2-0.2-6.7,2.1-9l24.6-24.6
	c8.4-8.3,13-19.6,13-31.4v-11.1c0-9.5-2.4-18.8-7-27.1C217.7,74.9,274.2,72.5,323.9,93.5L323.9,93.5z M77.2,229.5
	c0.2-1.1,0.3-2.1,0.5-3.2c0.1-0.7,0.3-1.4,0.4-2.1l0.4-2.3c0.2-0.9,0.4-1.8,0.6-2.7c0.1-0.6,0.2-1.1,0.4-1.7
	c0.2-1.1,0.5-2.1,0.8-3.1c0.1-0.4,0.2-0.7,0.3-1.1c0.3-1.2,0.6-2.4,1-3.6c0-0.1,0.1-0.3,0.1-0.4c11.9-41.2,38-76.8,73.8-100.4
	c3,5.7,4.6,12,4.6,18.4v11.1c0,7.3-2.9,14.2-8,19.4l-24.6,24.6c-6.9,6.9-9.4,17.1-6.2,26.4c1.5,4.4-0.7,9.2-5,10.9l-40,15.8
	c0.2-1.6,0.4-3.1,0.7-4.6C77,230.4,77.1,229.9,77.2,229.5L77.2,229.5z"/>
<g>
	<g>
		<path class="st1" d="M255.6,17.8c-4,0-8,0.1-12,0.3"/>
		<path class="st2" d="M195.2,25.5C92.1,52.3,15.9,146,15.9,257.5c0,132.4,107.3,239.7,239.7,239.7c32.3,0,63.2-6.4,91.3-18"/>
		<path class="st1" d="M369.1,468.7c3.5-1.9,7-3.9,10.4-6"/>
	</g>
</g>
</svg>
