<?xml version="1.0" encoding="utf-8"?>
<!-- Generator: Adobe Illustrator 25.0.1, SVG Export Plug-In . SVG Version: 6.00 Build 0)  -->
<svg version="1.1" id="Layer_1" xmlns="http://www.w3.org/2000/svg" xmlns:xlink="http://www.w3.org/1999/xlink" x="0px" y="0px"
	 viewBox="0 0 172.8 150" style="enable-background:new 0 0 172.8 150;" xml:space="preserve">
<style type="text/css">
	.st0{fill:#6EA6FF;}
	.st1{fill:#B8D3FF;}
</style>
<g>
	<path class="st0" d="M172.9,21.1v-3l0,0V1c0-0.6-0.4-1-1-1H1.1c-0.6,0-1,0.4-1,1v118c0,0.6,0.4,1,1,1h64.8v17.4H56
		c-0.6,0-1,0.4-1,1V149c0,0.6,0.4,1,1,1h60.8c0.6,0,1-0.4,1-1v-10.6c0-0.5-0.4-1-1-1h-9.7V120h64.8c0.6,0,1-0.4,1-1L172.9,21.1
		L172.9,21.1z M113.9,147H59c-0.6,0-1-0.4-1-1v-4.6c0-0.6,0.4-1,1-1h54.9c0.5,0,1,0.4,1,1v4.6C114.9,146.6,114.5,147,113.9,147z
		 M104.1,120.9v15.4c0,0.3-0.2,0.5-0.5,0.5H69.4c-0.3,0-0.5-0.2-0.5-0.5v-15.4c0-0.3,0.2-0.5,0.5-0.5h34.3
		C103.9,120.4,104.1,120.6,104.1,120.9z M169.9,4v13.1c0,0.6-0.4,1-1,1H4.1c-0.6,0-1-0.4-1-1V4c0-0.6,0.4-1,1-1h164.8
		C169.5,3,169.9,3.4,169.9,4z M3.1,116V97.3c0-0.6,0.4-1,1-1h164.8c0.6,0,1,0.4,1,1V116c0,0.6-0.4,1-1,1H4.1
		C3.5,117,3.1,116.6,3.1,116z M3.1,92.3V22.1c0-0.6,0.4-1,1-1h164.8c0.6,0,1,0.4,1,1v70.2c0,0.6-0.4,1-1,1H4.1
		C3.5,93.3,3.1,92.9,3.1,92.3z"/>
	<path class="st1" d="M86.5,112.4c3.1,0,5.7-2.6,5.7-5.7s-2.6-5.7-5.7-5.7s-5.7,2.6-5.7,5.7S83.4,112.4,86.5,112.4z M86.5,104
		c1.5,0,2.7,1.2,2.7,2.7s-1.2,2.7-2.7,2.7s-2.7-1.2-2.7-2.7S85,104,86.5,104z"/>
	<path class="st1" d="M79.4,9.9h71.5c0.8,0,1.5,0.7,1.5,1.5l0,0c0,0.8-0.7,1.5-1.5,1.5H79.4c-0.8,0-1.5-0.7-1.5-1.5l0,0
		C77.9,10.6,78.6,9.9,79.4,9.9z"/>
	<path class="st1" d="M12.8,13.3c1,0,1.9-0.9,1.9-1.9s-0.9-1.9-1.9-1.9s-1.9,0.9-1.9,1.9C10.9,12.4,11.8,13.3,12.8,13.3z"/>
	<path class="st1" d="M23,13.3c1,0,1.9-0.9,1.9-1.9S24,9.5,23,9.5s-1.9,0.9-1.9,1.9S22,13.3,23,13.3z"/>
	<path class="st1" d="M32.6,13.3c1,0,1.9-0.9,1.9-1.9s-0.9-1.9-1.9-1.9s-1.9,0.9-1.9,1.9C30.7,12.4,31.6,13.3,32.6,13.3z"/>
	<path class="st0" d="M160.1,13.3c1,0,1.9-0.9,1.9-1.9s-0.9-1.9-1.9-1.9s-1.9,0.9-1.9,1.9C158.2,12.4,159.1,13.3,160.1,13.3z"/>
	<path class="st1" d="M145.3,40h15.5c0.8,0,1.5,0.7,1.5,1.5l0,0c0,0.8-0.7,1.5-1.5,1.5h-15.5c-0.8,0-1.5-0.7-1.5-1.5l0,0
		C143.8,40.7,144.5,40,145.3,40z"/>
	<path class="st1" d="M145.3,47.7h15.5c0.8,0,1.5,0.7,1.5,1.5l0,0c0,0.8-0.7,1.5-1.5,1.5h-15.5c-0.8,0-1.5-0.7-1.5-1.5l0,0
		C143.8,48.4,144.5,47.7,145.3,47.7z"/>
	<path class="st1" d="M145.3,55.1h15.5c0.8,0,1.5,0.7,1.5,1.5l0,0c0,0.8-0.7,1.5-1.5,1.5h-15.5c-0.8,0-1.5-0.7-1.5-1.5l0,0
		C143.8,55.8,144.5,55.1,145.3,55.1z"/>
	<path class="st1" d="M107.9,72.2H152c0.8,0,1.5,0.7,1.5,1.5l0,0c0,0.8-0.7,1.5-1.5,1.5h-44.1c-0.8,0-1.5-0.7-1.5-1.5l0,0
		C106.4,72.9,107.1,72.2,107.9,72.2z"/>
	<path class="st1" d="M161.3,62.4l-68-0.1c-0.6,0-1,0.4-1,1v19.5c0,0.6,0.4,1,1,1h68c0.6,0,1-0.4,1-1V63.4
		C162.3,62.9,161.9,62.4,161.3,62.4z M158.3,80.7h-62c-0.6,0-1-0.4-1-1V66.3c0-0.6,0.5-1,1-1h62c0.6,0,1,0.5,1,1v13.3
		C159.3,80.3,158.9,80.7,158.3,80.7z"/>
	<path class="st0" d="M137.5,32.8H93.3c-0.6,0-1,0.4-1,1v23.8c0,0.6,0.4,1,1,1h44.2c0.6,0,1-0.4,1-1V33.8
		C138.5,33.2,138.1,32.8,137.5,32.8z M134.5,55.6H96.3c-0.6,0-1-0.4-1-1V36.8c0-0.6,0.4-1,1-1h38.2c0.6,0,1,0.4,1,1v17.8
		C135.5,55.2,135.1,55.6,134.5,55.6z"/>
	<path class="st0" d="M86,82.8v-49c0-0.6-0.4-1-1-1H11.6c-0.6,0-1,0.4-1,1v49c0,0.6,0.4,1,1,1H85C85.6,83.8,86,83.4,86,82.8z
		 M48.1,74h13.1c0.6,0,1-0.4,1-1v-1c0-0.6-0.4-1-1-1h-9.4c-0.8,0-1.3-0.9-0.8-1.6l2.2-3c0.2-0.3,0.5-0.4,0.8-0.4h16.5
		c0.3,0,0.6,0.2,0.8,0.4l9.4,12.8c0.5,0.7,0,1.6-0.8,1.6H44.6c-0.8,0-1.3-0.9-0.8-1.6l3.5-4.8C47.5,74.2,47.8,74,48.1,74z
		 M56.8,61.4l4.6-6.3c0.4-0.5,1.2-0.5,1.6,0l4.6,6.3c0.5,0.7,0,1.6-0.8,1.6h-9.2C56.8,63,56.3,62.1,56.8,61.4z M38.4,80.8H17.2
		c-0.9,0-1.3-1-0.8-1.7L31,62.4c0.4-0.5,1.1-0.5,1.5,0l10,12.1c0.3,0.4,0.3,0.9,0,1.2l-3.4,4.7C39,80.6,38.7,80.8,38.4,80.8z
		 M83,36.8v37.4c0,1-1.2,1.4-1.8,0.6L63,50.1c-0.4-0.5-1.2-0.5-1.6,0L45.7,71.6c-0.4,0.5-1.2,0.5-1.6,0L32.6,57.8
		c-0.4-0.5-1.1-0.5-1.5,0L15.4,75.9c-0.6,0.7-1.8,0.3-1.8-0.7V36.8c0-0.6,0.4-1,1-1H82C82.6,35.8,83,36.2,83,36.8z"/>
	<path class="st1" d="M42.6,56.4c4,0,7.3-3.3,7.3-7.3s-3.3-7.3-7.3-7.3s-7.3,3.3-7.3,7.3S38.6,56.4,42.6,56.4z M42.6,44.8
		c2.4,0,4.3,1.9,4.3,4.3s-1.9,4.3-4.3,4.3s-4.3-1.9-4.3-4.3S40.2,44.8,42.6,44.8z"/>
	<path class="st1" d="M153.2,32.8h7.6c0.8,0,1.5,0.7,1.5,1.5l0,0c0,0.8-0.7,1.5-1.5,1.5h-7.6c-0.8,0-1.5-0.7-1.5-1.5l0,0
		C151.7,33.5,152.4,32.8,153.2,32.8z"/>
	<path class="st1" d="M145.8,36.2c1,0,1.9-0.9,1.9-1.9s-0.9-1.9-1.9-1.9s-1.9,0.9-1.9,1.9C143.9,35.3,144.8,36.2,145.8,36.2z"/>
	<path class="st1" d="M101.2,75.6c1,0,1.9-0.9,1.9-1.9s-0.9-1.9-1.9-1.9s-1.9,0.9-1.9,1.9C99.3,74.7,100.2,75.6,101.2,75.6z"/>
</g>
</svg>
