<?xml version="1.0" standalone="no"?>
<!DOCTYPE svg PUBLIC "-//W3C//DTD SVG 20010904//EN"
 "http://www.w3.org/TR/2001/REC-SVG-20010904/DTD/svg10.dtd">
<svg version="1.0" xmlns="http://www.w3.org/2000/svg"
 width="311.000000pt" height="311.000000pt" viewBox="0 0 311.000000 311.000000"
 preserveAspectRatio="xMidYMid meet">
<metadata>
Created by potrace 1.11, written by Peter Selinger 2001-2013
</metadata>
<g transform="translate(0.000000,311.000000) scale(0.100000,-0.100000)"
fill="#000000" stroke="none">
<path d="M10 1555 l0 -1555 1550 0 1550 0 0 1555 0 1555 -1550 0 -1550 0 0
-1555z m854 928 c3 -10 93 -389 201 -843 109 -454 199 -827 201 -829 2 -2 4
377 4 842 l0 847 100 0 100 0 0 -945 0 -945 -182 2 -181 3 -197 830 c-108 457
-199 837 -202 845 -4 8 -7 -366 -7 -832 l-1 -848 -100 0 -100 0 0 945 0 945
179 0 c162 0 180 -2 185 -17z m1528 -11 c121 -49 185 -127 213 -259 18 -82 20
-454 4 -552 -21 -134 -100 -236 -217 -282 -51 -21 -78 -23 -264 -27 l-208 -4
0 -369 0 -369 -110 0 -110 0 0 946 0 945 318 -3 c302 -3 320 -4 374 -26z"/>
<path d="M1920 1931 l0 -381 174 0 c185 0 214 5 257 46 45 43 51 87 47 354 -3
278 -8 295 -83 334 -35 18 -62 21 -217 24 l-178 4 0 -381z"/>
</g>
</svg>
