<svg xmlns="http://www.w3.org/2000/svg" viewBox="0 0 201.83 67.52"><defs><style>.a{fill:#fff;}</style></defs><title>swell_life_logo</title><path class="a" d="M206.16,5V67H9.84V5H206.16m2.76-2.76H7.08V69.76H208.92V2.24Z" transform="translate(-7.08 -2.24)"/><path class="a" d="M62.06,48H65.8l2.58,7.23h0L71,48h3.73V59H72.26V50.54h0L69.29,59H67.4l-2.83-8.49h0V59H62.06Z" transform="translate(-7.08 -2.24)"/><path class="a" d="M81.5,48h2L88.42,59H85.63l-1-2.34H80.31L79.38,59H76.65Zm1,3.22-1.36,3.44h2.74Z" transform="translate(-7.08 -2.24)"/><path class="a" d="M100.49,58.25a9,9,0,0,1-2.28.82,12.19,12.19,0,0,1-2.42.25,7,7,0,0,1-2.43-.41,5.47,5.47,0,0,1-1.91-1.17,5.25,5.25,0,0,1-1.26-1.83,6.68,6.68,0,0,1,0-4.82,5.2,5.2,0,0,1,1.26-1.84,5.47,5.47,0,0,1,1.91-1.17,7,7,0,0,1,2.43-.4,8.91,8.91,0,0,1,2.48.32,4.84,4.84,0,0,1,2,1.1L98.51,51a3.49,3.49,0,0,0-1.14-.79,4.24,4.24,0,0,0-1.58-.26,3.89,3.89,0,0,0-1.44.26,3.36,3.36,0,0,0-1.1.75,3.27,3.27,0,0,0-.7,1.13,4.21,4.21,0,0,0,0,2.86,3.22,3.22,0,0,0,.7,1.12,3.36,3.36,0,0,0,1.1.75,3.89,3.89,0,0,0,1.44.26,4.74,4.74,0,0,0,1.39-.18,6.24,6.24,0,0,0,.94-.36v-1.8h-2V52.46h4.39Z" transform="translate(-7.08 -2.24)"/><path class="a" d="M107.14,48h2L114.07,59h-2.79l-1-2.34H106L105,59H102.3Zm1,3.22-1.37,3.44h2.74Z" transform="translate(-7.08 -2.24)"/><path class="a" d="M115.4,56.78l5.68-6.66H115.6V48h8.48v2.16l-5.58,6.66h5.77V59H115.4Z" transform="translate(-7.08 -2.24)"/><path class="a" d="M126.72,48h2.47V59h-2.47Z" transform="translate(-7.08 -2.24)"/><path class="a" d="M132.24,48h3.35l4.77,7.69h0V48h2.47V59h-3.23l-4.89-7.88h0V59h-2.47Z" transform="translate(-7.08 -2.24)"/><path class="a" d="M146,48h7.62v2.25H148.5v2.07h4.87v2.25H148.5v2.25h5.44V59H146Z" transform="translate(-7.08 -2.24)"/><path class="a" d="M31.94,11.78l-.08-.21.29.08.62-.16.37.16.17.21h.29l.83.91.37.58.25.7,0,.62L35,16.08l-.08.29.13.37,0,1.08.09.33-.42.12,0,.37-.7.79-1.32.37L31,20.59,30,20.8l-.25.33L29.05,21l-.21-.2-.21-.54-.12-1.7.21-.37-.29-.79-1.2-.2H24.62l-.41,1.9.25.29-.13,1-.12.29.12.33.13,1.37.74.08v.37l.25.09v-.38l1.49.46.21.16.29,0,.62.13.53.29.62-.09.58.13.25.16.29,0L31,24l.66.17h.62l.09.29.24-.25.58.16.33.21.38,0,.53.37.62.29,0,.33-.13.21.29.16-.12.38.12.33-.08.66.12,1,0,.33-.12.21.2.62v.74l-.2.34-.09.33-.24.2.37.09,0,.29-.45.33-.17.2.12.46.29,0,.13-.21.12.25,0,.29-.17.16.21.38-.12.33.08,1.07,0,.38-.13.28.17.58,0,.71-.08.29-.21.2.13.33,0,.67-.21.7-.16.29-.5.41-.66.09.2.41-.37.21-.25-.29-.37.53H32.4l-.7-.16-.21.25-.12-.29L31,40.07l.21.46-1.32-.13-.21.13-.29-.25-.58.2h-.33l-.25-.12-.33.12-.62,0-.5-.16-.2.16-.29.09L26,40.48l-.25-.12-.62.17-.75-.09-.12-.33-.25-.2-.16.08-.09.54-.45-.05-.25-.12h-.41l-.13-.25-.2-.12,0,.29-.2.16-.33,0-.33-.12-.21-.25-.21.21-.29.12L20,40.36,19.45,40l-.66-.29-.21-.25v-.33l-.29-.25,0-.25.13-.12.29.12-.17-.2-.37-.05-.17-.2.25-.29-.33-.46.08-.91-.16-.37.16-.25-.16-.29.08-.53-.17-.87.09-.29,1-1.2L19,32.5h.37l.66-.37.33,0,.25-.25.46-.12.49-.29H22l.2-.37.33-.09.21.13.29-.21.33-.08.58.16.25.25.12.29,0,.37-.2.29.2.62,0,.42-.12.33,0,.37.33.41,1.24.46.33-.12.42-.05.33-.12.25.21.2-.21.38.21.53-.21.37-.5.13-.7-.13-1.78h.42l-.13-.21-.2-.12V30.6l.16-.25-.25-.17V29.9l-.2-.25-.75-.37-.49.08L26,28.94l-.62-.29-.66.05-1.49-.5-.71-.08-.41,0-1.24-.42-1.66-.37L18.67,27h-.33L18,26.09l.13-.17-.25-.37.08-.33,0-1.28.13-.25-.13-.21,0-1.4-.08-.29.25-.54-.13-.5V18.89l-.12-.29.16-.66,0-1-.12-.29.25-.37-.17-.5.17-.37L18,15.05v-1.2l.25-.21v-.42l.17-.28.45-.46.13-.29.37-.08.7-.54h.7l.29-.16.75.08,2-.08.95.16.33-.12,1.45.12.62-.16.29.16.16-.25.58.21.41-.12v.45l.21-.12-.08-.33.33.24.25-.16h1.61l.25-.08.29.16.25,0ZM18,35.48l.17.08L18,35.31Zm.17.74.21.29.24-.12-.24-.17Zm.21-15,.33.12v-.2Zm.41,13.57H19l-.17-.29Zm.21-1,.37-.2-.54-.09Zm0,4.76.08-.33-.21.12Zm0-1.45h.24L19,36.85Zm.62-13.77.2-.21-.25-.25L19.2,23l.38.08Zm.08,11.91H19.2l.17.21Zm-.42,1h.17l.08-.2h-.25Zm.63.38-.29-.21-.17.29.29.17h.41l.17-.25.33-.09.12-.29-.33.09-.25.16Zm-.21-2v-.12h-.21Zm.08-2h.13l-.09-.24Zm.13-6.82h.24l-.24-.21Zm.37,10.09.08-.29h-.21Zm0,2.53,0-.25L20.11,38Zm.16-21.85h.17l.08-.24h-.16Zm0,8.86.62.08-.12-.29h-.29Zm.33-5,.21,0,.17-.2Zm0,19.11.17-.12-.17-.12Zm.38-.87.12.25v-.45l-.45-.08.08.24Zm-.17-23.28.17-.13h-.17ZM21,35.11l.09.74.29-.62Zm0,1.44.17-.12L21,36.31Zm.21-14.43-.12.29.29.16,0-.24.09-.63-.13-.28.21-.21L21.4,21l-.21.66Zm0-6h.12L21.4,16l-.21-.09Zm0,7,.08.29.17.17.25-.62-.29,0Zm.08,1.2.42.25-.17-.37.13-.21-.13-.21-.12.29Zm.42,15-.42-.21.21.29ZM21.4,26l.08.2.29-.29Zm.37,9,.25-.92-.38.09-.24.2.37-.08-.13.33Zm-.29,1.28.29-.17,0-.37.2-.12L22,35.4l-.33.08-.21.21,0,.24ZM22,22.41l-.38-.21.17.29Zm-.38,16.5.21-.16h-.12Zm.09-6.57h.37v-.21Zm0-16.05h.62L22.14,16l-.37-.17ZM22,19.35l0-.33-.29-.21.08.33Zm-.25,4,.25.08-.17-.21Zm3.76,1.53-.62,0-.25-.12.54-.29-.29-.29-.29.2,0,.71-.21.29-.16-.13-.29,0v-.37l.16-.37-.24.17-.29-.05V25l-.33-.16.33.45-.17.17-.91-.25-.16-.16v-.29l.24.12.09.29L23,25l-.12-.37-.25-.25-.13.21-.29,0-.2.21-.17.33.37.29-.24.24L22,26l.2-.21.09-.25.29.17.62.12h1l.25-.21h.37l-.08-.28.08-.25.37.82.25.17-.17-.46.46-.08-.08-.37Zm-3.6-9.68v.12l.09-.2Zm.62,6-.2-.29L22,21l.24.12Zm-.37,12.37-.16.29.33.08.58.29-.42-.54Zm-.16,4,.29-.08-.21-.25Zm0,2.19.37-.16-.21-.21Zm.16-20.68h.13v-.17h-.13Zm0,4.51.17.2.2-.2Zm0-11.54.17.08.08-.17-.16-.08Zm0,20.6.42-.13-.17-.16Zm0,2.85.33.29.29-.21.17-.33-.54.21Zm.42-12.08L22.39,23l0,.25Zm-.25-4,.16.08.09-.17-.17,0Zm0,15.68.37-.09.54-.54-.46.17h-.29l0,.17Zm.08,2.27v.17l.08-.25Zm.08,2,.21-.25-.21-.29,0,.33Zm0-20.6h.13v-.17h-.13Zm.13,5,.37.37,0,.29.37-.16L23,23.61l-.08-.37Zm.41-2.52L23,20.88l-.25-.17,0,.33Zm-.33,1.07.25.13,0,.33.17.2,0-.29-.09-.41L22.93,22Zm.25,1,0-.24-.29-.17V23ZM22.76,32l.17-.08V31.8h-.17Zm.08,5.26h.25l-.25-.13Zm.25-21.68h.13L23,15.46ZM23,36.47l.45-.08-.16-.25-.25,0Zm.08-1.36h.54l-.46-.33Zm.37-13.32-.24-.29,0,.25Zm-.24,15.3h.62l.37.46.12-.33-.62-.62-.08.33h-.21Zm.16-18.82h.17v-.12h-.17Zm.46,5.05-.29-.08-.17.53.54.17-.17-.29.33-.08.21-.17-.12-.16V23l.2.16-.08-.29-.21-.12L24,23Zm-.46,3.06.37-.21L23.46,26Zm.08,7.73.29.09.17-.09-.21-.33-.33-.2.08.2Zm.25,5.71,0-.33.17-.2h-.33l-.09.29Zm0-17.7L23.46,22l.13.2Zm-.2-7.36h.16v-.13h-.16Zm.08,2.68.08-.29L23.55,17Zm.21,8-.09.29-.12-.17Zm.08-10.92v.16l.08-.25Zm0,21.09.29,0,.25.17-.17-.29-.21-.17Zm.16,3.81h.29l-.16-.21Zm.13-15.18h.16v-.33h-.16Zm.08-8.28.21,0-.13,0Zm.08,11.3.46,0-.17-.42-.24.21Zm0,11,.21-.12-.21-.17Zm.46-2.07L24.46,36l.12.2Zm-.29-20.85.45,0L24.75,15Zm0,21.31v.33H25L25,36.6l-.13-.13ZM24.62,40h.13l-.21-.08Zm0-13.61.46.08L25,26.13l-.29-.21Zm.13-9.56.24-.29h-.24Zm0,21.47h.16v-.16h-.16Zm.08-11.54h.25l-.25-.12Zm.08-14h.17v-.12h-.17Zm.17,23.54,0-.38L25,35.69l0,.41ZM25,15.91l.21-.16h-.12Zm.29,24.37.17-.29-.12-.29.29-.79-.25-.08,0,.37-.34.66v.25Zm0-12.91.17-.33.29,0-.21-.21-.37,0-.12.37Zm.25,10h-.29l-.08.17h.37l.25-.08.21-.25-.29-.09Zm-.16-13.52.25-.13-.09-.16Zm.37,12.82-.29.25.37-.13.25-.25.29.3v-.42l-.62-.29.16-.29-.24.17,0,.29Zm.45-11.5v-.62l.25.12h.21l-.12-.58-.29,0-.09.24-.16.17-.13-.29-.16-.17-.17.21.09.62.28.08Zm-.66,9.76v.17l.09-.25Zm0,5h.21l-.12-.33Zm.09-1.82h.2l-.12-.34Zm4.09-11.26-.08-.33-.46-.33-.12.29-.29-.16-.37-.09,0-.2.28.08.29-.12.25.12.13-.25-.09-.25.05-.29-.34.09-.33-.13L28.35,25l.45-.08-.21-.25-.24-.49-.13.29,0,.29-.12.24-.33-.24,0,.33.21.29-.17.16v.13l-.45-.29.12-.21,0-.33.33-.12.12-.17h-.53l-.17.21-.37-.29-.09.53.34.09-.13.33.17.25-.13.24-.33-.24-.08.24-.21.09.29-1-.2-.21-.13.37-.21.13-.29-.05.13.21.25,0-.21.29-.33-.21V26l.16.25.05.24-.13.25.33-.08v0l.29-.25-.08.29.33.08.21.25,0-.33-.41-.45.28-.29.25.2-.16.34.7-.34.08.17-.33.17.09.28.7-.45v.7l-.25.09.08-.42-.37.17.08.37-.37-.12-.25.2h.33l.29.13.13.33-.21-.09.17.34,0,.29-.25-.17h-.21l.33.21.37,0,.13.2.25.08-.29-.45.16-.21-.16-.33.45.08.29-.08-.21-.21.29-.08.29.08.25-.08-.16-.29.2-.12ZM26.28,39,26,38.87l-.21,0L26,39ZM25.9,13.72h.38l-.09-.16ZM26,27.29l.12.29.25,0V27.5l.45-.05-.2-.24-.25-.13Zm.16-11.54.29.12.21,0-.08-.33-.42-.41.09.41Zm0-3.48.21-.16-.21-.25Zm.17,25.11.37.09.08-.38-.33,0Zm0,1.37.12.41v.66l.17.25L27,39.2l-.37-.08.29-.7-.09-.29-.16.58Zm.17-24.37h.12v-.12h-.12Zm.08,22.47,1,.28.29-.08.25-.29L27.6,37l-1-.7.21-.33-.05-.21-.24.12v.66ZM26.9,15l.2,0-.12,0Zm0,.46h.54l-.29-.21H26.9Zm3.06,21V36.1l-.29-.17.12-.2V35.4l-.25-.17-.28.08L28.88,35l-.08.53-.37-.33,0,.25.24.12-.57.33-.33-.2-.29,0v.33l-.21-.17-.25.21.17.33.66-.37.2.29.34.16.08-.24-.25-.17h.7l.17-.21.29-.08.41.54ZM27.35,13.85V13.6l-.2-.13Zm0,2.4h.17v-.17h-.17Zm.09,22.21.12-.29.41-.5-.37.25,0-.29-.21-.08v.7Zm-.09,1.82h.25v-.21h-.16Zm.09-26.81.29.09.33-.25-.46-.21Zm.08-1.61.29-.17-.21-.2Zm.16,23.54h.13v-.17h-.13Zm.21-21.1.17.33.53.54,0,.12.25-.74-.58.08-.16-.16.41-.29.33.08-.2-.29-.42,0-.08.29Zm.25,1.95.12.24.25,0-.25-.29Zm.29,10.42.25.16.12.34h-.54l0-.29Zm-.17,13.24.33-.33-.33.12ZM28.43,16l.2.2.25-.12-.08-.17Zm0,12.28.29,0,.08-.33-.29.08ZM29,37.75l-.25-.49-.21-.17v.13l.21.29Zm0-22.37-.25.08.16.12Zm-.25,21.38.54.46.16-.62-.29.16Zm.08-8.31H29l.29-.17-.09-.2h-.12l-.13.2Zm0,10.46.7-.16-.62-.21Zm0,1.29h.25l-.25-.13Zm.08-9.06h.17l.08-.25H29Zm.17-14.85.21.16.12-.25.21-.12-.21-.58-.25-.21.21.87Zm0,12.61h.12v-.16h-.12Zm.08-14.64.29.21-.25-.29Zm.58,10.67-.33,0-.25-.12.13.29.28.08Zm-.54-1.07.17.08.08-.17-.16-.08Zm0,3.88.09.25h.37l.25-.08-.09-.17-.33,0Zm0,12.17.33.08-.24-.21Zm.09-26.19.16.17.29,0-.21-.21Zm0,14.93.41.09.12-.29-.2-.29Zm0,1.25h.33l-.09-.25h-.16Zm.33,8.31.12-.12-.12-.29-.25-.13-.08.33ZM29.71,34l.33-.17.21.38h-.37l-.05.29-.2.12-.29,0,.25.21.66-.21v.29l-.21.25.29.25-.29.08.37.5.17.62.37-.21.25.12,0,.34.25.08.12.16-.16.09-.29,0v.38l-.13.2V38l-.33-.08.21.25.33,0,.13-.37.33-.17-.09-.37.58-.08.13-.21H32l-.33-.46.2-.16,0-.37h-.29l0-.33-.29.12L31,35.69l-.12.24-.21.17-.08-.37-.21-.13.71,0,.29-.16-.33-.09-.21-.16,0-.29-.21-.25-.12.25-.25-.29.21-.33.33-.21-.21-.12-.33,0-.08-.46.7-.16.08.37.34-.17h.33l.24.25.21-.21-.08-.37,0-.7h-.29l-.21.08.17.46-.25.2-.29,0L30.62,33l-.21.25-.58.08-.16.17Zm-.21-8.32h.21v-.24h-.12ZM30,37.55l-.25-.13-.21.13.25.12Zm.29-10.92L30,27l-.33,0-.13.29.13.16.16-.16.34,0,.41,1,.45.12.29-.12.29.17,0,.28.29.42,0-.29.12-.25v-.37h-.33l.5-.25.08.37-.08.33.29.13.16-.29.29-.17.17-.74-.21.2-.2.09v.37h-.29v-.54H31.9l-.58.33-.24-.16h-.29l-.21-.38.58.17.16-.25-.24-.25,0-.37L30.5,27l.2.21-.37.08.08-.37Zm-.66,12.2.2-.08-.12-.09Zm.58-23.29h-.5l.25.13Zm0,1.53.16-.37L30,16.58l-.37,0,.16.38Zm-.5.37.21-.16h-.17Zm0-4,.17.09.08-.17-.17-.08Zm.17,15.68L30,28.9l-.25.17.17.33.24.25.09-.37h.29l-.13-.34-.2-.2-.05.33Zm.24,1.9-.29.09-.12.2.33.17.54-.91-.33-.25-.13.37Zm1.29.54,0,.37L31,32.5l-.24-.21L30.62,32v-.28L31,32l-.08-.45-.7-.08-.05.29.38.45-.17.17-.54-.54.09.29.24.33-.24.12-.09.25.62.33-.24-.45v-.33l.53.29v.24L31,33l.33-.09-.2-.37.33,0,.25-.21-.09-.66.42-.08-.09.25.09.29.2.12-.12-.45.45.16-.12.33-.21.21.09.37-.13.33.46-.41.45-.91-.49-.29.24-.25-.45-.08.25-.21.12-.33-.66.54-.25-.13-.16.29Zm-1.62,5.17v.46l.33,0,.29-.13-.08-.37-.21.37L30,36.6Zm.09-18.61.37-.17-.37-.16Zm.37,7.32,0-.29L30,25.1l.08.25Zm-.08-10.71.16-.29H30Zm-.05,11.45.21-.2h.29l.08-.17,0-.29-.16-.16-.42.53Zm.21,12.62h.37v-.45l-.25.16ZM30.41,40l.29.29.21-.33,0-.29-.21.2ZM31,25.68l.17.24-.38.42-.24.12.08.17H31l.17-.33.29.16,0-.29.41-.41-.7-.08.08-.25-.12-.13ZM30.62,12.4h.17v-.13h-.17Zm0,1.86h.17v-.17h-.17Zm0,.83.17.2.53.17.13-.25,0-.21-.17.13-.29,0Zm0,14.1h.17V28.9h-.17Zm0,.71L31,30l.37-.46-.53.09Zm0,.62.25-.09.16-.16-.41-.13Zm.25,7,.16-.62-.33-.08,0,.41ZM30.7,16.16,31,16l-.12-.17Zm.09,2.11.2-.16L30.7,18Zm0-4.42H31v-.21h-.24Zm0,2.77.33-.17L31,16.29Zm.24.82.21-.16v-.37l-.37-.09.12.33Zm2.57,16.8-.46.33-.2-.25-.25.08.25-.2.37,0,.29-.29.08.16.25-.08L34,33.7l-.45,0-1,.12-.29-.16.24.54-.45.62-.33.08v-.25l-.21-.12v.29l-.08.16-.25-.16-.08-.38.33-.08L31.24,34l-.12.25-.25-.12.25.7.45.45.21-.24.37-.13.33.29.17-.16.29.08.08-.29.33.21.21-.21-.42-.08.29-.17.67,0,.2-.33-.37.08ZM31,28.82l.38-.17-.25,0Zm0,1.9.25-.16.13.16.2-.08.09-.29h-.42l-.2.08Zm.13-.66.45.08-.16-.24Zm.16,1.66h-.16v.16h.16Zm.17,7.81v-.24h-.25Zm-.08-12.36.37-.17-.08.29.37.08.33-.16L32.15,27l-.66-.33-.12.21Zm.08-8,.33-.12.12-.21-.24,0-.21-.12Zm0,16.92h.12v.17h-.12Zm.29-9.51.33.12v-.41L32,26.09l-.13.29Zm.08-10.72.25.09-.17-.25Zm.29,14.23,0-.24-.17-.17L32,30ZM32,35.56l.08-.08-.17-.17Zm.2-20.64v-.21H32ZM32,29.65v.08l.2-.29Zm.29,1.24.16-.46H32l.08.29Zm.08-13.65-.29-.09.12.21Zm-.29,12h.21l-.21-.12Zm0,7.2h.29l.16-.17-.28,0Zm.12-9.56.58.13.21-.21-.25-.08-.33,0Zm.25,12.37v-.12h-.2Zm-.16-9.68.78.21.29-.37-.29,0-.16-.25-.17.25-.25,0Zm.08.75.45-.09L32.61,30Zm.08-15h.13v-.16h-.13Zm.13,1.66.33.08-.17-.21Zm.08,11.83.37,0,.13.25.2.16,0-.25-.16-.29-.25-.2Zm0,7,.08.37h.37L33,35.85l.25-.08h.33l0-.37-.33.08-.21.21ZM32.94,33l.08-.25-.25-.08Zm-.09.45.17.09.08-.17-.16-.08Zm.09-16,.08.2.29-.29Zm0,13.28.37.16.12-.29,0-.25-.33.13Zm0,7,.29-.13-.09-.16Zm.2-7.57.46-.13.12.17,0,.29.29-.12v-.3l-.16-.24-.25,0-.25-.33-.17.33Zm0,2.15.09.66.16.25.13-.37v-.38l.33-.16-.25-.29-.21.16Zm.09-4.05h.33l.37-.17-.17,0L34,28l.09-.29-.25.13-.09.29L33.39,28Zm.08,3,.66.13.17.25,0-.29L34,31.14l.21,0-.08-.37-.67.24Zm.08-16.25.29-.13-.08-.2Zm.17,16.79,0-.29h-.21Zm0-18.41h.2l-.2-.16Zm0,22.92.45.08.09-.37-.34-.25-.12.25Zm0-1.16h.16L33.6,35Zm.16-19.85h.17v-.13h-.17ZM34.1,33l.37,0-.09-.29Zm0-6h.16v-.17h-.16Zm.33,7.32.29-.37H34.3Zm.12-19.85h.17V14.3h-.17Zm0,20.47.25-.08.16-.25-.33,0Zm.08,2.73.25-.37-.33.08Zm0-3.35.17.08-.17-.24Zm.09-2.52h.37l-.13.33Z" transform="translate(-7.08 -2.24)"/><path class="a" d="M44.32,15.5V16l-.09.33.21.45-.21.54.25.21.17.7.16.29L45,20.55l.16.16L45,21l.37.46-.08.29,0,.62.33,1.28,0,.33.21.37.08,1.33.12.62.29.58-.16.74.08.33.41-.83.25-.16,0-.33.37-.91-.08-.33,0-.38.33-.57,0-.67.25-1.24,0-.29.45-1.2.17-.24L48,20.55l.37-1.41-.08-.33.33-.54,0-.37.41-2L49,15.58l.17-.25.33-1.57.12-.25,0-.62.12-.37.29-.29V11.9l.46-.37,1-.17,1.49.09,1.07-.09.25.17h.58l.33.5.42.86-.05.71.34,1,.2.29-.16.29.24.54.34,2.48.58,2.6.28,2.07.17.25.37,1.82-.2.25.24.16.09.67.12.24h-.33l.79,1,0-.58L59,25.22l-.12-.54.29-1.4.12-.21-.08-.37.41-1.62v-.7l.21-.29-.17-.45.13-.25.21-.13-.13-.37,0-.37.17-.33,0-.37L60.41,16v-.33l.29-.54-.08-.46.08-.33,0-.29.12-.29L61,13.6l-.17-.29-.08-.42h.41L61,12.56l.08-.29.58-.82H62l.54.16.45-.25,4.14.09.46.7L67.4,13.6l-.17.66-.24.58.12.33,0,.37-.17.37-.25.21.09.66-.09.71-.2.53L66,20.63l-.37,1.16.08.29,0,.33-.33.62-.08.33.08.62-.2.54,0,.66-.2.25,0,.33-.25,1-.17.25.13.29-.25,1-.21.33v.63l-.16,1.24-.5,1.94,0,.33-.41,1.82,0,.37-.29.38.13.24-.29,1V37l-.21.45v.83l-.37.79-.09.66-.16.33-.58.25-.17.2L61,40.24l-.29.24h-.42L60,40.32l-.7.12-1.32-.08-.25.12-.62-.16-.54.08L56.15,40l-.29-.58-.21-.66,0-.67-.25-.57-.16-1,.08-.24L55.07,36l0-.66-.21-.21.13-.33v-.21l-.21-.25.25-.29-.29-.24-.29-1.41v-.29l.12-.29-.24-.25-.09-.33-.2-.33,0-.58L53.75,29l.08-.62-.37-.21.12-.37-.33-1,0-.74-.2-.46.08-.24-.25-.29-.08-1.25-.66.54.08.46L52,25.3l-.17,1-.16.2.12.38-.37.53.12.33.05.46-.29,0,.08.29-.08,1.24-.25.08-.17,1.7-.45.21.12.58.13.2-.13.71-.25.7-.53,3.31-.42.87.09.29,0,.24-.24.13.2.33-.16.25,0,.33-.79.7-2.73.08-1-.16-.54.12-.37,0-.25-.16-.37,0L42.79,40l-.17-.21-.25-.7-.2-.25.08-.25L42,38l.13-.33-.33-.21.24-.45L42,36.6,41.63,36l.16-.37-.33-.29,0-.29-.2-.91,0-.33-.25-.67-.29-1.94-.33-.83,0-.37-.16-.62.2-.29L40.26,29l0-.71L39.81,27l0-.33-.29-1.28.17-.29-.34-.25v-.75l-.28-.7.08-.37-.25-.5v-.66l-.21-.46V21l-.25-1.07.09-.58-.29-.13,0-.37-.41-2,0-.33-.13-.29L37.57,16l0-.71-.38-1.69,0-.34L37,12.89l.08-.33L37,12.23l.12-.33.46-.41,1-.13.74.17.25-.17.29.13.71-.13.29.17.7-.21,1.24.29.54.29.2.25,0,.37.17.29,0,.33.29.62-.17.25.25.58.08.66Zm-4.59,1.08.29-.09.16-.2-.33,0Zm.82-1.37.17.08.08-.16-.16-.08Zm0,1,.21-.16-.21-.17Zm0,1.08h.17v-.17h-.17Zm.38-.33.08-.29-.21-.17v.33Zm-.09-.75h.25L40.84,16Zm0,10.14H41v-.13h-.17Zm.5,3.76L41,29.77l.08.25Zm-.17-1.61.67-.46-.21-.16-.25.33Zm.09-11.38v.17l.08-.25Zm.12,5.42h.17v-.16h-.17Zm.17,2.82.16-.46h-.33l0,.29Zm-.09-1h.25v-.2h-.25Zm0,5.34.25.08-.16-.21Zm.46-3-.29-.08.12.2Zm.25,1.57-.54.54.37.08.21-.54.16-.2-.25-.54-.2-.17,0,.29L42,28Zm-.54,3,.21.08.08-.2Zm.08-4h.13V27h-.13Zm.21-11.38L42,15.5l-.21.12Zm-.13,8.32h.13L42,24l-.21-.08Zm.58,5.54-.16-.21-.37-.08.16.37Zm-.12-6.25.12-.41-.45,0,.08.29ZM42,18.27l.17,0-.09-.2Zm.33,8.44.21-.21-.25-.08,0-.29-.25.13,0,.33Zm-.16,4.47.37-.33.25.33-.21.16,0,.21.54.21,0-.38-.12-.28.29-.17-.29,0,.08-.33-.33.08-.29-.25-.29.5Zm.37,3.72,0-.33-.17-.21,0,.33Zm.16-13.07-.08-.21h-.29l.08.29Zm-.16,8.4.25-.29.29.29.37-.29-.29-.13-.7,0-.13.17Zm-.21,2.06h.13l-.13-.2ZM42.46,27l.24.33.42.08.25-.16h-.29L43,27l.13-.29L43,26.59l-.12.08.16.16-.24.21Zm.08-10.47.29.25-.21-.33Zm.08,11.38-.08.78.29.29v-.45l.7-.25.08-.37h.21v.33h.5l-.13-.33-.25-.17-.33,0-.29.13-.16-.17-.25,0Zm.29,1.36-.37-.2.16.25Zm-.37,8.11.25-.08-.21-.21Zm.08-15,.17.41.41,0,.33-.12-.08-.17-.37,0v-.25Zm0,2.07.37-.09L42.7,24Zm.17,9.3.08.33-.25.29.21.17.45-.79,0-.37-.24-.08-.09.29Zm.45-8.85h-.45l.2.25Zm-.45.7.24.09.13.2.62-.08-.12-.29-.5-.29-.13.25Zm.2,6.87h.17l-.25-.08Zm.09-3.06.62-.46.12.34.41,0,.29.16-.53.17h-.38l.29.45.25-.2.66-.21.25-.21.08-.37h-.53v-.37l-.29-.17-.17.46-.21-.25.05-.37-.21-.09-.12.29-.25.13-.25-.13,0,.46Zm.16-7.49.29.08.08-.24-.16-.21ZM43.53,27l.08-.37-.24.16Zm-.08-6h.16v-.16h-.16Zm.25,13.08.08-.25-.17-.17-.08.25Zm.2-12.08-.29.08.13.08Zm-.2,2.27.16-.2,0-.38-.21-.16.09.33Zm-.09,7.49.38-.08v-.29l-.09-.17-.16.25Zm.21,3.6.33-.29H43.7Zm0-8.11.29.25L44,27.29Zm0,5.67.21.33.33.21.12-.29.29-.09-.12-.29-.25-.08-.29.08Zm.5,1.65-.09-.33-.33-.12.13.33ZM44.15,34h.17L44,33.74Zm.17-7.32.12-.37.37,0L44.57,26l-.34-.17-.12.29,0,.37Zm-.25,6,.25-.13-.17-.21Zm0,4.42h.16v-.16h-.16Zm.08-1.16h.29l.17-.16-.29,0Zm.08-4,.38.17v-.33l.2-.21.09-.25-.25-.54-.21-.2,0,1Zm.13-4.26.29-.21.12-.33L44.36,27l0,.33ZM44.44,35l.17-.24,0-.34-.21-.2Zm.37-6.49-.08-.29-.21,0Zm.33,1.16.38,0,.29-.13.08.29-.75.08-.53.25.37.21-.21.33h.29l.13-.37.16-.13.54-.12v.37l-.37-.16-.17.45.54.17-.37.25-.17-.21-.29-.13,0,.34.21.57-.41.17.24.45.34-.12.28.12-.33.34-.66-.09.42.58.33.17-.09-.46.33-.08.54-.29,0,.41.17.33.29,0L47,33l-.49-.54-.17-.29.42-.08.33.12L47,32.5l-.16.17.54-.13.08-.45L47.13,32l-.08-.33-1.24.25-.38-.08.09-.29.24-.17.91-.2.13.29.25-.46-.21-.25-.33-.12-.08.29-.29.08L46,30.48l.17-.25,0-.29-.13-.25.21-.08.17-.21-.38-.17-.37.09L45.6,29h-.29v.29Zm-.37,6.49.29.29.08-.37L45,35.69l-.25-.25,0,.33Zm0-10.42.33,0,.17-.17-.25-.16,0,.2Zm.09,8.19.16-.13-.16-.12Zm.53-8.85-.08-.38-.12.21Zm-.2,2.06.12.38.33-.09.08.29.25-.2-.25-.71-.2.21Zm0,9.52h.12v-.13h-.12Zm0,.62.2-.29-.08-.25-.12.29Zm.45-3.43-.37-.29.08.33.21.29.33-.09.21-.33-.38-.37.05.29Zm-.33,2.23.29-.13,0-.66h-.25l-.12.42Zm.17,1.82h.16v-.17h-.16Zm.53-9L46,28.65h-.29l.08.29Zm-.29,6.29.29.16.46-.24.21.12.08-.12-.66-.29-.33,0Zm.05,1.65H46l.08-.2h-.24Zm0,1.78.33,0-.17-.2Zm.41-2.4-.17-.53L46,36Zm.58-1.73,0-.34-.25-.57-.21.2v.33l.21.67.45-.25.34.12V34.2Zm-.46-5.22.33.09v.24l.46-.24-.37,0-.13-.21.13-.29h-.33Zm.17,1.25.29-.05.08-.2Zm.08-.63v.25h.33l.13-.25Zm.21,6.79.25,0,.16-.25-.29,0Zm.16-1,.09.54.33,0,.21-.21-.13-.16,0-.29h.37l-.08-.33-.29-.46-.12.42.12.37Zm.09-1.77.08.24.37-.24Zm.25-2.65.08-.29-.17-.21-.08.25Zm-.17,2.27.25-.08.12-.21-.25,0Zm.08-7.32L47.5,26l-.08-.21Zm0,4.18.58-.13-.29,0L47.3,30Zm.13,1.53.33-.08-.25-.38-.12.21Zm.41-2.19.29-.58.08-.37-.25-.13v.37l-.2.13-.21,0,.13.33Zm-.25-4.84.25.08-.16-.21Zm0,9.39.37-.13-.2-.16Zm0,2.07.09.24.28.09.09-.29-.17-.17ZM47.59,28l.28.09.09-.25-.17-.17Zm.2,2.9v-.17l-.2,0Zm-.12-7.57h.12v-.12h-.12Zm0,9.64.2-.13.09-.29-.09-.29-.08.09v.29Zm.2-5.42H48v-.17h-.17Zm0,4.51.71.45-.08.33.08.21.41-.83L49,32l-.37,0-.46-.38ZM48,25.43l.16-.29-.2.08Zm.62,4.34-.37.08-.25-.2.16.25.29.08ZM48,31l.17-.37-.21.12Zm.08,2.61.25,0,.13.25.28-.13v-.25h-.24l-.21-.25-.12.17Zm.21-10,.54-.08,0-.34.12-.37-.21,0-.24.54Zm.33.74-.12-.16-.21.08Zm.12,2.07v-.33l-.16-.37-.29-.21.21.62Zm-.2,3.89.29-.08-.09-.13h-.12Zm.29,5.29h-.29l.12.21Zm-.21-6.12h.12v-.16h-.12ZM48.74,28l.17-.12-.17-.13Zm.46-.25.12-.16v-.29L49,27.17l-.25,0,.17.24ZM49,29.23l.25.09L49,29.11Zm0,2.24.08.16.38-.08-.09-.37-.25.08ZM49,25.8l.46.25.08-.46-.37,0Zm.71-3.18-.17-.29V22l-.45-.2.12.37.21.25Zm-.62.45.2.25.33,0-.2-.25Zm0,3.52.2.12.46-.29h-.33Zm.08,5.58.29-.08-.29-.17Zm0,1.74h.12v-.17H49.2Zm.45-3.23.21-.58L49.57,30l.37-.17-.12-.12-.33,0,0,.74ZM49.57,28l.54-.08L50,27.66l-.29,0Zm.08-6.58h.13v-.12h-.13Zm.13,4.6h.29l.2-.25-.24,0Zm.08,3.26.17.09-.09-.21Zm.25,4.6-.25-.17,0,.25Zm-.17-1.29h.17v-.16h-.17Zm.54-6-.08-.45h-.29l.08.33Zm.17-6.57v-.21l-.46.08Zm-.17-2.44h.17l-.25-.09Zm-.08,9.39.37.16v-.25l-.21-.2ZM50.48,25l.29,0,.08-.16h-.29Zm.7-7.15,0-.38-.29-.24.13.33Zm.21.91-.08-.21-.29,0,.08.21Zm-.29-3.15.25.25h.29l.21-.25-.46.09v-.38Zm.17,6.87.37-.21-.08.46.37-.25-.17-.29-.37-.08Zm0,.7h.16V23h-.16Zm.08,1.91h.17l.08-.25h-.17Zm.54-7v-.29l-.37.21.24-.08Zm-.08,5.75H52v-.16h-.16Zm.41-1.86-.33-.21L52,22ZM52,16.41h.25l-.17-.54,0,.25Zm.46-1.28V15l-.21,0ZM52.3,17l.41-.16-.29-.05Zm.25,5.67v-.33l-.25-.13,0,.29Zm-.17-7.28.38.08-.17-.21Zm.54,6,.13-.38-.29-.24v.33ZM52.84,17l.33.25v-.33Zm.33-2.11.08-.33h-.33Zm-.25,4.71.54-.08v-.21l-.37,0ZM53,18.4l.17.2.12-.2Zm.09-2.65.33,0,.33-.29.08-.29-.58.25Zm.37,7.69.08-.29-.21.13Zm.08-1.61.37,0v-.17l-.24.08Zm.08-1.37h.13V20.3h-.13Zm.09-.82h.12l-.08-.25Zm0,7.94H54l-.25-.17Zm.25-2h.16v-.16H54Zm.16-9.3.29-.46-.29-.08-.12.33Zm-.08,6.61h.21v-.2h-.13Zm.37,3.89.17.09.08-.17-.17,0Zm0,.42.29.29.08-.46Zm.25-.87.21.08.08-.37Zm.21-13,.16-.13-.16-.12Zm.08,11,.29-.12-.21-.62-.08.33Zm.45,2h.42l.2-.29-.37.12Zm.09-6.33h.16V19.8h-.16Zm0,3.68.37.2-.21-.28Zm.29,10.3v-.46l-.25.17Zm-.21-8.32v.13l.08-.21Zm.08-4.34h.13v-.33h-.13Zm0,6.25H56v-.25h-.16Zm.09,2,.24-.29-.24.09Zm.24-5.5.17-.37-.21.16Zm.21,1.28.33-.45-.33,0-.12.24Zm0,.71.17-.13-.17-.12Zm.12,3.8.17-.16.08-.38-.16-.2-.09.33Zm.09,3.06.58,0,.24.13-.08-.33-.29-.29-.2.25Zm.16-4.18.29.05-.12-.21Zm.46-3.06h-.37l.16.25Zm-.08.46v.16l.08-.24Zm.16,4.13.17.21.29.09.08-.38-.17-.25-.08.25Zm.21,4.47.25-.12.08-.54-.25.25ZM58.22,28l-.09-.33-.24-.2-.09.24.13.25Zm-.09,2.45h.13l.08-.25h-.12Zm.54,2.68h-.33l.17.21Zm0-2.68.21-.17L59,30l-.21-.21-.16,0,.16.29Zm0,5.7.17.09-.08-.21Zm.71-7.4.16.08.08-.16-.16-.05Zm0,4.38.2-.2-.2-.21Zm.37,1.29.33.08v-.25Zm.08-8.11v.16l.08-.24Zm.17-.83h.2l-.2-.16Zm0,5.25h.2v-.2H60Zm.16,2.86.33.41-.12.33.25-.16-.09-.66Zm0-15,.25-.16h-.16Zm.09,8.24.12-.25-.12-.21,0,.29Zm0-2.82.24-.08.13-.21-.25,0Zm0,5.59h.24l-.24-.17Zm.24-6.75.09-.24-.17-.21-.08.29ZM60.41,28l.25-.16h-.17Zm.25-11.16h.12l-.08-.21Zm0,11.7.45-.41L61,28l-.17.29Zm1.24-1.32L61.28,27,61,27l.66.25Zm-1,5.29.33.17.37-.17-.12-.25-.21-.12-.17.21ZM61,17h.16v-.13H61Zm.54,8.85-.09-.45h-.29v.28Zm-.33-2,.29,0,.12-.2h-.29Zm0,.58.33.09-.13-.21Zm.16,7.32,0-.24-.2-.21v.29Zm0-13.27.29-.13-.29-.08Zm0,16.05.37-.25-.24.08Zm.08-18.16.38,0,0-.25L61.57,16Zm.38,17.25.24-.25h-.29Zm0-16.51.24.08-.16-.24Zm.08,10.67.16.09-.16-.21Zm.45-.2-.12-.17L62,27.25l.13.2Zm-.16-1.29.41-.33-.25-.16-.16.25Zm.08-8.56.33-.25-.25-.08Zm0,1.2.17-.16-.17-.05Zm.25-3.56.33-.16.12-.29-.33.12Zm.08,5.42h.13l.08-.25h-.17Zm.13,2.44.08-.25-.21-.12Zm0,3.27.33.46-.25.24.33-.08.21-.16-.17-.54Zm.62-4,.08-.21L63,22.16l.13.21Zm-.29-4.88h.12l.08-.17-.2-.08Zm.2-1.82.25-.25.13-.37-.25.08-.13.29Zm.25,8.4h.13l0-.25Zm.29-7.74.21,0-.13,0Zm.17-1.9.2.25.33-.25.09-.29-.42.08Zm0,9.3h.16v-.12H64Zm.53-7.23v-.17l-.2,0Zm0-1,.09-.29-.25.13Z" transform="translate(-7.08 -2.24)"/><path class="a" d="M85.6,11.86l0,.33.13,1-.17.25.21,1.74-.13,1-.24.62-.21.25-1,.08-.25.17-1.74-.17-.33.13-.29-.13-.29.21-.7-.21-.29.13-1.86,0L78.28,17l-.41.12-.33,0-.25.17-.37-.13-.33.09-.83.58.12.37,0,.66-.16.25.12.25v1l-.12.33.21.62,0,1.45.12.29.33,0,.21.17.12.24.09-.37.62.46v-.33l.29-.09.58,0,.2.21.29-.29.33.21.21-.21.33.13,1-.13v.21l.33-.13.62,0,.87.09.25.2L83,24l0,1.28.08.33-.16.29.12.34v.66l-.29,1.28-.25.17-.62.12-1.4.12-.46-.33-.45.42-1.37-.17-2.07.08-.45.54.12.33v.42l-.29.08.29.08-.08.66.17.62-.09.38,0,.7-.08.29-.25.25h.29l0,.29-.16.16.2.33-.2.29.66.91.87-.33.29,0,.25.21,0-.21.24,0,.91-.12.34.12.49-.2.29.16.87-.08.08.29.09-.29h1.15l1,.12.12-.12,1.9.21.13.37.29.25v.82l-.33.09.37,1-.13.25.13.29-.21,1.07.17.46-.13.29-.49.7H82.46l-.7.08-.37-.16-.91.16-.63-.16-.33.12h-.41l-.25-.2-.29.12L78,40.4l-1.9,0-.46.17-1.32,0-1.36-.13-.29-.16-.25.12h-.66l-.25-.12-.29.12-.62-.12h-.71L69.6,40l-.13-.29.17-.74-.21-.67,0-.37.12-.7.13-.25-.29-.25.12-.33v-.7l.08-.42-.2-.37.12-.29-.08-1.07.16-.62-.2-.38.08-.74,0-1,.12-.67-.16-.33.12-.62.25-.2-.25-.25.08-.37-.16-1.2h.45L69.47,27l0-.7.12-.29-.16-.66V25l.16-.28-.12-.34V22.2l0-.29.17-.16-.29-1.33v-.29l.12-.33-.12-.2.12-.25-.12-.29.08-.75.21-.7-.25-.37.12-.37v-.38l-.16-.66.12-.37-.12-.29.08-.33,0-1.74.08-.66.21-.58.45-.41.33-.13.29.09h2l.29.08.29-.13.7.05.25.16.29-.12.7-.09,1.45.09.91-.13.29.25.29-.08.16-.21,2,.13.87.16.33-.16.33-.05,1.08.09.24-.17.67,0,1.48.42ZM69.72,22.12h.12V22h-.12Zm.37-.08h.17v-.17h-.17Zm0,2.69.17,0-.17-.21Zm0,2.64h.29l.17-.16h-.33Zm.17-4.18.37.13-.17-.25Zm.12-2.93.42-.13-.29-.08Zm0,5,.25-.12h-.17Zm.42,8.57h-.42l.21.12ZM70.46,24l.71.21.29.41.08-.45-.87-.29Zm.09,3.89.29.08-.13-.2Zm.62-4.8.16-.54L71,22.41l0-.37L70.63,22l.17.67.16.28Zm-.37-3.22L71,20l.29-.08L71,19.8Zm.2-.63.09-.28-.25-.17v.29Zm-.16,8,.37,0,.25.2.16-.28-.29-.05-.24-.2Zm0,1.07h.25v-.2h-.17Zm.08,4.88.29.17h.58l-.42-.54-.28.13ZM71.46,19l-.09-.34.25-.29-.33.09L71,18.35l.21.5ZM71,26.09h.17v-.17H71Zm.09,3.43.37-.16-.25-.08Zm.24.54,0-.21-.2-.24v.24Zm.46-.37h-.33l.33.21-.21.16,0,.29.37.17-.16.2-.33.09-.17.24.29.09.29.2.08-.29.21-.08.25-.25-.29-.12.16-.62-.37-.46,0-.33h-.21Zm-.25,6.7V36.1l-.21.17Zm-.08-13.82.33-.37L71.54,22l-.17.29Zm.16,5.8-.25-.29,0,.24Zm-.16-8.69.16.12.29,0,.17-.16-.33-.05Zm0,3.56.37-.13.41.08V22.9l-.2-.12-.33,0-.09.29Zm0,2.31L72,25.3l.2-.2h-.33l.25-.37-.33.16-.25.29Zm.16,7.32.17-.45-.21.21Zm.29-14.72v-.46h-.2V18Zm-.2,20.51h.12v-.12h-.12Zm.12-4.09.25-.29L72,34l.16-.29-.33.21-.12.33Zm.33-18.86-.33-.09.12.17Zm-.33,8.68.17.09.08-.17-.17-.08Zm.62,4.31h-.33l-.29.12.33.12.29-.08.17-.25.08-.7-.37-.08.12.54ZM71.83,37H72v-.16h-.17Zm.08-16.21.54-.05-.29-.2Zm0,.95.29-.09.13-.24-.17-.17Zm1.41,9.14-.17.21-.29.12-.62,0-.16.25-.17.91.42-.29.29.08.41-.08.21-.33h-.38l-.2.16-.29.09-.13-.33.46-.29.29-.09.25.25v-.33l.37.33v-.41L74,31.1l.25-.38-.58.17Zm-1.41,2,.38.13.08-.13-.29-.2ZM72,16.53l.33,0,.12-.24-.25.08Zm.33,5.67L72,21.79l.08.29Zm-.17,14.44.08-.42L72,36.14v.33Zm-.08-9.19.25.17.2-.17-.24-.12Zm0,1.91.29.16.12-.24-.12-.13Zm.08-10.22h.46l.08.33.37.42-.25-.67v-.33l-.29-.2-.16.24Zm0,16.71.37.08,0-.37-.33-.16Zm.08-11.37.46.29,0-.33.17-.34L72.7,24l-.21.25Zm.13.7v.33l-.13.25V26l.67-.46-.17-.16,0-.29Zm.54,9.14-.09.37-.37-.2-.12.33v.29l.33,0,.78-.38.09-.33-.17-.25-.12.25Zm.33-12.45-.33.54-.54.08.25.29-.05.33.21.13,0-.58.37-.09.63.21.33-.21-.09.54h-.37l-.25.13v.41l.17.21v-.29l.16-.17.46.17v-.29l.54-.33-.25-.29,0-.38L74.44,22l0,.29-.24.17-.25-.21-.37-.08.2-.25.25-.12-.29-.05-.21.21ZM74,33.58l-.29-.21-.25,0v-.21l-.7.17-.29-.13.12.25.5.25.25-.25,0,.46.46.16.33-.41.29,0-.09-.37-.2-.25-.05.29Zm-1.45-16.3.29,0L72.74,17l-.21-.08Zm1,9.64h-.67l-.33-.09.21.25.29.13.33-.09Zm-1,9.84.21.21.17-.29Zm0,.87h.62l-.45-.25ZM72.62,33h.2l-.2-.17Zm.45-19.77L73,13l-.29,0,.08.24Zm.08,15.26.38-.08-.17-.29,0-.42-.62-.12.33.58Zm-.37.75.46-.21-.33-.37-.17.29Zm.13-8.61.28,0,.25.21.33,0-.16.21-.25,0v.45l.17-.16h.29l.12-.29,0-.41-.62-.29-.12-.29-.25,0-.21-.13,0,.29Zm.24,4.8.09.25-.17,0-.16.16.24.25-.24.21-.13.33.46-.16,0-.29.38-.42.12-.29-.33-.16ZM72.78,30l.29.29.25-.21.21.12h.37l.16.3.29.12v.29l.54-.21V31l.41.08-.24-.87-.38.34-.08-.29-.25-.09-.29,0-1-.82-.16.29Zm0-14.6H73v-.13h-.17Zm.25,2.52,0-.25-.21-.12v.25ZM72.82,25l.25.09-.16-.25Zm.25,10.39v.25l.17.12v-.25l.12-.29-.54-.12Zm.08.74-.33,0,.13.17Zm-.24-5.33h.41v-.38l-.29.13Zm0,7.48h.16v-.16h-.16Zm.33,1L73.15,39,73,38.83l0,.29ZM73,16.16l.33.09V16l.12-.25-.29.16Zm.08,16.63h.29V32.5l.54-.08L73.82,32l-.25-.08-.25.17-.21.33Zm.37-18.16,0-.33-.16-.21-.09.38Zm-.29,23.29.46.08-.08-.37.16-.16-.37.12Zm.21-21.63.29-.17-.12-.21Zm1.53,9.47,0,.33.16.25.5.37-.62,0-.21.25.09.2-.17.17-.33-.12-.29,0-.54.33.29.16.17.91.25.13-.17-1,.75-.33.24-.2.09-.34.29.17v.45l-.58.25.29.54.24.21.13-.66.33-.58-.25-1.29.29-.2-.33-.09-.29.09Zm-1.36,3.76.2-.2.33,0-.16-.21-.29-.08-.13.25Zm.24,6.79-.24-.38,0,.25Zm-.24-22.22.16-.12-.16-.12Zm0,11,.2-.17-.12-.16ZM73.82,17V16.7l-.21.17Zm0,2.9.12-.29-.12-.54h-.21l.08.29-.08.33ZM73.61,35.4l.37.16.25-.45L74,34.9l-.29.13Zm.08-18.12.08.25.21-.29Zm.08,7.2.54.16.21.21,0,.95-.09.29-.16.21.37.16v-.7l.08-.33.21-.25-.08-.29.08-.33h-.25l-.12-.46-.25.17-.33,0Zm0-8.86h.33l-.17-.2Zm0,10.14.33.08.08-.37-.25.08Zm.08-9.39.41.08v-.37l-.25.08ZM74,18.89h.37l0-.33-.08-.21-.16.29Zm0,10.84h.17v-.12H74Zm0,6.37h.79L74,35.77Zm.17-20.85.29-.16-.21-.25Zm.37,15.93-.37,0,.16.2Zm-.37,5.46.29-.09-.21-.33Zm.08-8.56.21.08.16-.25-.25-.08Zm0,7.61h.12v-.13h-.12Zm.08-6,.58.41v-.53l-.54-.25Zm.46,2.77-.46.29h.33l.17-.25,0-.33L74.6,32v.25Zm-.46,1.82.37.08.13-.53-.29-.09-.13.25Zm0-20.93h.17v-.12h-.17Zm0,4.76v.12l.09-.2Zm.09-4.06.33.17.2-.08-.37-.46Zm.33,3.6-.09-.29-.16-.12v.25ZM75,35.31l-.37-.2.13.25Zm-.2.71.12.58.17.25-.38.53.46-.16.21.25-.13.45-.41-.08-.21.45.17.25-.17.54.62-.42.21-.28-.62.16.25-.41h.29l.16-.21-.08-.21.16-.24-.45-.54.21-.29L75,36.39l.21-.29-.12-.25Zm-.09-19.49.17-.12-.17-.12Zm0,3.73.25,0L75,20Zm0,3.76.21.17.33,0-.12-.29.12-.29-.41-.08Zm.46,10.76L75,34.53l-.33,0,.17.2Zm-.46,1.07h.13v-.16h-.13ZM74.77,15l.2-.16.09-.29-.29-.08Zm0,13.7h.29l-.25-.33ZM75.35,17l-.13-.37L75,16.37v.33l.09.25ZM75,19.51h.17v-.16H75ZM75.22,33l.08-.29H75ZM75,34l.13.25h.29l.2-.17-.24-.12Zm.25-8.65.13-.29-.25.13ZM75.14,23h.16v-.17h-.16Zm.21,10.46-.21-.24v.24Zm0-4.05.08-.29L75.22,29v.29Zm.16-11.09L75.3,18v.25ZM75.3,34.78v.53l.58-.16.09-.29-.17-.17-.21.21Zm.38-10.39-.09-.24-.24,0Zm0-8.39-.09-.29-.16.16Zm-.25,7.65v.12l.08-.2Zm0,9.06.16.08-.08-.21Zm.16-19.24.09.33.37-.08.16-.33-.29.08Zm0,3.6.21.08-.12-.24Zm.09-2.77.29.33,0-.41L75.68,14Zm0,13.9v.25l.29.16.45-.41h-.25l-.2.12Zm0,8.93h.12l0-.2Zm.37-24,.16-.16-.16-.25-.29,0,.08.24Zm-.29,3.52H76v-.25H75.8Zm0,10.3.12.53.38-.08-.17-.29v-.33Zm0,10.83.62.17v-.33l-.12-.12-.21.2Zm.54-21.5.08-.25-.29-.13-.25,0,.21.17Zm-.21,9.22v-.29L76,25.1l-.09.25Zm-.25.62h.17l.08-.25h-.25Zm0,2h.17l.08-.17-.25-.08Zm0,10.38h.17v-.17h-.17ZM76,24.1h.16v-.16H76Zm.16.13L76,24.6l.16.33.25-.54.21-.2Zm0,2.15.62.37v-.54l-.25-.12-.08-.25.21,0,.16-.12-.29-.13-.29.46Zm.17-10.67.16,0-.12-.05Zm0,20.68.25.5.24.12v-.29l-.12-.25.21-.25h-.33Zm0-22.54.16.08-.08-.21Zm.41.86v-.33l-.33-.12,0,.29Zm-.16.54.37.37.33-.7-.37.13Zm0,23.75.29.08-.13-.25Zm.2-11.92.42.09L77,26.92l.17-.21-.29.08Zm.09-13.44H77v-.17h-.16Zm.33,12.74.45-.54-.29-.12-.29.16-.08.25Zm.12,10.17,0-.28L77,36.14l0,.33ZM77.12,25l.17-.24-.17-.13Zm0,10.39.38.08,0-.25-.25-.08Zm.75-8.4-.21-.29-.37.12.33.13Zm0-13.07-.17-.17-.29,0,.21.25.33.13.33-.46L78,13.64Zm-.46,11.29.34.13.2-.13-.29-.12Zm.09-1,.29-.17-.21-.25Zm.16,13.9.09-.34-.25.13Zm-.08.57.25.25,0,.29.25-.54-.33-.12Zm.29-23.12.12.21.29,0-.16-.29Zm0,22.92h.25l-.25-.17ZM78,26.3l.21.25.25-.17Zm0,10.17.29,0,0,.25.38-.21-.17-.33v-.29h-.21v.34Zm.09,3.19h.16l-.08-.21Zm.16-12.74h.29l-.16-.21Zm.29-11.54.17-.58-.37.41Zm-.08.62.17-.09-.21-.2Zm.08,19.93h.17v-.16h-.17Zm0,2.28.33.12,0,.42h.17l.17-.13L79,38.33l0-.33Zm.09-12.74.28.16-.08-.28Zm.53-9.93-.33.29.46,0v-.37l-.17-.17h-.37l.16.21Zm-.33,23.83.29,0,0-.25Zm.25-3,0-.25L78.94,36Zm0,.74.37,0,.29-.16-.2-.13-.34.05Zm.17-10.21.12-.09v-.12l-.21-.08Zm.12.08.25-.17h-.17Zm0,8.69.33.33,0,.2.25.17.08-.54-.29,0-.16-.16Zm.08-23.29.17.33.2-.41Zm.29,13.32h.17l-.21-.09Zm.08-1.33.25-.16h-.16Zm.09,3.15h.2l.13-.25Zm.45,9.14.25.17.08-.46Zm.37,1.41.25,0-.16-.21Zm.17-12.33.33.08,0-.33-.25-.08ZM81,35.85l.29-.12.17-.25-.42.12Zm.17.46h.21l-.09-.21Zm.58,1.9.29-.21-.13-.25-.16.21Zm.33-1.66h.16l-.08-.24Zm.08-.53h.21l-.21-.17Zm1.12-20.23-.08-.25L83,15.46l0,.25Z" transform="translate(-7.08 -2.24)"/><path class="a" d="M96.94,34.82l.29-.21.54.21-.08.33-.21.21.08.33.21.2-.08-.7h.41l0-.37.25.08.08-.21.42,0,.25.17.45-.29.46.37.49-.29.25.08,1.65-.08.34.13.24-.05.25.21.33.54.21,1.07-.08.29-.17.17.25.54-.08.33v.7l-.21.33.21.46v.37l-.25.16-.29.46-1,.12L101,40.36l-1,0-.38.08-.45-.24-.29.16-1.45.08-.08-.28-.33-.09.25.21-.29.12-.71,0-1,.08L95,40.32l-1.57,0-.29-.12-.37.24-.67-.08-2.68.08-1-.24h-.33l-.2-.17-.17-.29-.29-.91.08-.66V36l.09-.29.2-.17-.2-.25-.09-.33.21-.2-.29-.38.29-.16L87.47,34l.29-.29-.29-.41.29-.13-.29-.33V31.72l.17-.34-.17-.45V29.77l.17-.12L87.47,29l.17-.29-.17-.62v-.33l.17-.29-.13-.95.17-.29-.21-.21.12-.58-.12-.95.12-.62-.12-1,.21-.53-.13-.29.21-.38-.29-.24.21-.38-.09-.37,0-2.07.21.09-.21-.46V15.75l.09-.33-.17-.29.21-.37-.17-.34.17-.74-.17-.33,0-.54.17-.58,0-.33.2-.16.62-.25.71-.13.62.09.25.16.29-.16,1-.13.29.21.62-.12.91,0,.41.62.29,0,.17.25v.37l-.17.58.13.62-.09,1.36L94,16l.13.33-.37.12.33.54,0,.95.08.21-.17.24.13,1.29-.17.29.13.7V22l.08.33-.13.34V23l.13.2-.08.62.08,1.74-.17.29,0,.29.13,1-.05.33-.16.33h.25L94,29.07l.09.66L93.8,30l.21.62v2.65l-.21.16.37.83-.08.7.29-.12.12-.25h1.28l.25.13-.45.45.25.21.41-.25.33-.08-.08-.46.37-.08ZM88.21,15.5l.42-.37L88.21,15l-.08.29Zm-.08,7.65.17.09.08-.17L88.21,23Zm0,14.89.25-.37-.25.13Zm.17-1.77.29-.13,0-.33-.13.25Zm.33-15.35,0,.33.17.25-.17.2-.12-.33-.09.29.17.25.54-.25.2-.2H89l-.16-.25,0-.37Zm-.08-.46.29-.08-.09-.12h-.12ZM88.67,19l0,.29.37.41-.08.37.25-.08.12-.21.21.09,0,.29.29-.17.16-.29V19.1h-.33l-.25.45-.29.09-.2-.33.37-.09.08-.2-.33.12Zm0,9.63h.21l-.21-.16Zm0,5.55.25-.29h-.25Zm.08.54.37-.21-.45-.25v.29Zm0-15.89H89l-.08-.45Zm1.45-1-.33-.13-.41.09-.25-.25-.29.08-.13.29,0,.25.28,0,.17.16.37-.08.25.08-.25.09-.12.16.29.08.16.17-.37-.08.17.2.33-.12L90,18.56l.38-.25.62.42-.17.29.33-.13,0-.58-.5-.29.17-.29,0-.33-.41.21Zm-1.36-3.35.2.25.25-.17L89,14.47Zm1.69.08.08.62-.53.17L90,15.13l-.62.2.29.34.42-.09.29.17-.25.12-.37,0,0,.33-.09.25-.58.7-.2-.24v.41l.29,0,.54.25-.29-.37.2-.38.42.05.29-.21.12.21,0,.41.62-.25.21-.21H90.9l0-.33-.42-.66.21-.45v-.33H91l.16-.17-.33-.21ZM89.08,24.68l.29.29.09-.29Zm0,2.07.21-.16-.17-.17Zm0,3,.29,0-.25-.33Zm0,8.89.29-.33-.2.09Zm0-13.07.25-.12-.16-.21Zm0,7.78h.17l-.08-.21Zm.17-12.12.17-.17-.25-.24Zm0,14.56.37-.12-.12-.25ZM89.75,15l.08-.29-.17-.62h-.2l.16.62Zm-.21,6.12.37.17v-.41l-.25-.21Zm0,12.54.58.08L90,33.41l-.33-.12Zm.45,1h.38L90.08,34h-.29l-.25-.16.12.28.21.21Zm-.45.29.29.25-.08-.21.16-.25ZM90,23.69l-.37-.62,0,.33.12.29Zm-.37-11.46h.17l0-.25h-.21Zm0,14.19h.13v-.16h-.13Zm0-.54.17-.08-.17-.12ZM90,27.12l-.12-.24-.21-.13,0,.33.21.17.79-.42,0-.33-.33-.08,0-.29-.21.25,0,.37h.33l-.29.21Zm-.33,10.22.62-.08.17.33h.29l-.37-.54-.62,0Zm.71-5.17-.17-.25-.29-.08-.16-.21,0,.33.09.21.24.08ZM89.75,23,90,22.9l.13-.2-.25,0Zm0,6.2.2-.08.13-.25-.33-.08Zm.16-8.64.08-.29-.2.12Zm-.08-7.12.33.21.21.25-.17-.58Zm0,22.17.83.09.16-.09.25.46.12-.37v-.25l-.66.08L90,35.36Zm.08-8,.37-.08.25-.25-.37.08Zm0,.74.21.33.25-.16L90.12,28Zm.37,3.15-.08-.21-.29,0,.12.29ZM90.9,33l.17-.29-.29-.08-.41-.38-.13.25-.21.17-.12.29.29.08.08-.33h.25l.13.25v.37l.24.17ZM90.08,35l.12.21.41,0-.24-.21Zm.12-14,.25,0,.16-.2Zm0,1.45.41.17-.08-.71-.16.29Zm0,.79.46-.09-.09-.25-.29-.08Zm.17,1.28.08-.29L90.37,24l-.13.33Zm0,5.58.24,0,.29-.21-.33-.12Zm.08-4.88.16,0-.16-.2Zm.16,6.7,0-.25-.21-.12v.25Zm-.16,2.24L91,34l.12.29.08-.17,0-.28-.5,0Zm0,.45.21-.16h-.13Zm.08-14.35.46-.08-.09.45.29-.17.17-.28-.25-.29-.37-.17-.08.25Zm.21,18.53.08-.29-.21.12Zm0-14.19h.16l-.08-.25Zm.16,6,0-.25-.21-.13Zm-.16,1.65h.16v-.12h-.16ZM91.61,14l0-.29-.25-.12L91,13.51l-.17.25.37.09Zm-.79,23.74H91l.08-.2h-.25Zm.08-10,.21.13L91,27.5Zm0,1.82.29.29L91,29.4ZM91,15.83l.37-.25-.25,0Zm.2,2.11.09-.45-.29.2Zm-.12,15.68.41.08.25-.16-.37,0Zm0,3.35.21-.17-.17-.29Zm0,1.07.21.25.37,0V38l.25.21,0-.33-.33-.12-.25.2Zm0-19.77.41-.08.09-.33-.33.12ZM92,13.89l0,.33-.21.2-.29,0-.25.13.54.33.17-.25.29-.17v-.66Zm-.79,19.19.25.12.66,0,.33-.09L92.14,33l-.37,0-.25-.25.29-.21-.16-.37-.37.54Zm.42-9.47h-.13l0-.25-.16.37.24.17Zm-.09,4.71.09-.45-.33.08v.21Zm-.16-10.75.37,0,.25.21.29-.09-.21-.33-.49,0Zm.54.54-.17.29.08.33-.45-.09,0,.46.12.16.13-.33H92l-.08-.33.16-.2.29,0,.17-.25L92.35,18l-.16.17Zm-.54,7.11.29-.12.08-.29-.25.12Zm.25,9-.25.08.12.12Zm-.25.41.08.21.37-.21Zm.29-18.78.21,0,.24.08V15.5l-.37,0-.21-.21-.08.29Zm-.21,5.63.21,0,.25.12.16-.25-.29-.12-.29.08Zm.21,1.07.25-.45L91.44,22l0,.34Zm.16,4.06-.08-.21-.29,0,.17.25Zm.09,4.88-.17-.17-.29-.08.46.78.12-.24,1-.17V31.3l-.57.21-.38,0V31.1h-.2Zm-.38-10.63.25-.09.13-.29-.25.13ZM91.61,37h.2l-.2-.17Zm.49-20.48-.24,0-.21.21.29.21.16.25,0-.38.29-.16,0-.33L92.06,16l0,.29Zm.09,18V34l-.46-.16,0,.33.17.2Zm-.46,4.71.25.17.08-.29Zm.08-10.3.29.08-.12-.2Zm.46-3.27-.08-.29-.29-.08.12.25Zm-.37,5.34.53.17-.08-.54-.41.08Zm.08-6.7.33,0,.21-.13-.33-.62v.33l-.13.21Zm.45,4-.29-.12-.16.12ZM92.1,26l.17-.09-.17-.12Zm0,3.68.5.08.17-.33-.17-.21-.25.29Zm0,5.87.33-.25-.29,0Zm0,.54.33.37.29-.16.29-.34.13-.28L93,35.44l-.12.37-.21.21-.29,0Zm.09-7.41h.24v-.24h-.16Zm.08-8.72.21-.09-.13-.2Zm0,1.53.08.33.25-.17.12-.33-.16.13Zm0,12.24.08.29.21-.16-.13-.21Zm.37-20.48-.29-.16.08.21Zm-.21,2.36.21-.08h.41l-.12-.29-.29-.16-.29.16Zm-.08,5.26.25.08,0-.46-.21.09Zm0,9.64.29-.25-.21-.05ZM92.43,16h.17v-.13h-.17Zm.09,21.22h.29l-.21-.29ZM92.6,28h.29l-.25-.29Zm0-6h.17v-.17h-.17ZM93,26.42l-.12-.25-.21-.12.13.21Zm-.33.37.17.09-.09-.21Zm.08,6H93l.25-.21-.29.09Zm.09-8.31v.24l.33-.12-.09-.21Zm.08-4,.08-.12-.08-.16Zm0,6.75.37-.09-.08-.33L93,27Zm0,2.73v.29l.29.16.25-.29-.25-.33,0,.29Zm.21,7.65.08-.21-.08-.25h-.21l0,.29Zm-.13-.7.17-.17-.09-.21Zm.37-21.6-.12-.2-.17.12Zm-.29,19.86.25,0,.25-.12.25-.62-.29.12-.25-.12.13.24-.13.25Zm.46-1.95-.25-.37v.37Zm-.08.54h.16l-.25,0Zm.08-8.39.29-.29.16-.38-.33.13-.24.25Zm-.08-3.44.2.08-.12-.2Zm.08-2.19h.12v-.17h-.12Zm.08,16,.37-.25-.28,0Zm0-22.55h.17V13h-.17Zm0,15.8h.25v-.2h-.16Zm.09,7.66.08.25.29.2-.21.54.33-.17.09-.29-.09-.33-.2-.2Zm.62,0-.09-.33-.2-.13.08.29Zm.08,2-.12-.25-.21.09Zm-.33.91h.16v-.16h-.16Zm.16-1.36.29.08.25-.08-.12-.25-.25-.17Zm.17-1.45h.16v-.17h-.16Zm.16.58h.13v-.13h-.13Zm.67.91v-.29l-.17-.17V38Zm.16-2,.09-.12.2-.08-.54-.09Zm-.16.71.29-.13.33-.41-.54.25-.17-.33,0,.33Zm.45,1.44.29-.12,0-.33-.12.25Zm.46-2.81L96,35.6l.12.13Zm-.09,1.66h.17l.08-.21h-.16Zm.09-1.12.62.08-.17-.25-.29,0Zm.45,3.43-.2-.37,0,.29Zm.46-2.15h.16v-.16h-.16Zm.33-.54-.17-.37-.08.25Zm.83,1.45.24-.21-.29.05Zm.16-2.07v.25h.21l.08-.25-.21,0Zm.37.25.21,0-.12,0Zm.38-1.07h.41l.21-.17-.38,0Zm.86.33.25,0,.29.08.21-.29h-.29l-.25-.17-.12.21Zm1.37,4h.16v-.12h-.16Zm.62-2h.12v-.16H102Z" transform="translate(-7.08 -2.24)"/><path class="a" d="M115,34.82l.29-.21.54.21-.08.33-.21.21.08.33.21.2-.08-.7h.41l0-.37.25.08.08-.21.42,0,.25.17.45-.29.46.37.49-.29.25.08,1.66-.08.33.13.25-.05.24.21.33.54.21,1.07-.08.29-.17.17.25.54-.08.33v.7l-.21.33.21.46v.37l-.25.16-.29.46-1,.12-1.16-.08-1,0-.38.08-.45-.24-.29.16-1.45.08-.08-.28-.33-.09.25.21-.29.12-.71,0-1,.08-.29-.16-1.57,0-.29-.12-.37.24-.66-.08-2.69.08-1-.24h-.33l-.2-.17-.17-.29-.29-.91.08-.66V36l.09-.29.2-.17-.2-.25-.09-.33.21-.2-.29-.38.29-.16-.29-.21.29-.29-.29-.41.29-.13-.29-.33V31.72l.17-.34-.17-.45V29.77l.17-.12-.17-.62.17-.29-.17-.62v-.33l.17-.29-.13-.95.17-.29-.21-.21.13-.58-.13-.95.13-.62-.13-1,.21-.53-.13-.29.21-.38-.29-.24.21-.38-.08-.37-.05-2.07.21.09-.21-.46V15.75l.09-.33-.17-.29.21-.37-.17-.34.17-.74-.17-.33,0-.54.17-.58,0-.33.21-.16.62-.25.7-.13.62.09.25.16.29-.16,1-.13.29.21.62-.12.91,0,.41.62.29,0,.17.25v.37l-.17.58.13.62L112,15.29l0,.67.12.33-.37.12.33.54,0,.95.08.21-.17.24.13,1.29-.17.29.13.7V22l.08.33-.12.34V23l.12.2-.08.62.08,1.74-.17.29,0,.29.13,1,0,.33-.17.33h.25l-.08,1.33.08.66-.25.29.21.62v2.65l-.21.16.37.83-.08.7.29-.12.12-.25h1.29l.24.13-.45.45.25.21.41-.25.33-.08-.08-.46.37-.08ZM106.3,15.5l.41-.37L106.3,15l-.09.29Zm-.09,7.65.17.09.08-.17L106.3,23Zm0,14.89.25-.37-.25.13Zm.17-1.77.29-.13,0-.33-.13.25Zm.33-15.35,0,.33.17.25-.17.2-.12-.33-.09.29.17.25.54-.25.2-.2h-.33l-.16-.25,0-.37Zm-.08-.46.29-.08-.09-.12h-.12Zm.12-1.44,0,.29.37.41-.08.37.25-.08.12-.21.21.09,0,.29.29-.17.16-.29V19.1h-.33l-.24.45-.29.09-.21-.33.37-.09.08-.2-.33.12Zm0,9.63h.21l-.21-.16Zm0,5.55.25-.29h-.25Zm.08.54.38-.21-.46-.25v.29Zm0-15.89h.25L107,18.4Zm1.45-1-.33-.13-.41.09-.25-.25-.29.08-.12.29,0,.25.29,0,.16.16.37-.08.25.08-.25.09-.12.16.29.08.16.17-.37-.08.17.2.33-.12-.13-.25.38-.25.62.42-.17.29.33-.13,0-.58-.5-.29.17-.29,0-.33-.41.21Zm-1.36-3.35.2.25.25-.17-.25-.12Zm1.69.08.08.62-.53.17-.09-.25-.62.2.29.34.42-.09.29.17-.25.12-.37,0,0,.33-.08.25-.58.7-.21-.24v.41l.29,0,.54.25-.29-.37.2-.38.42.05.29-.21.12.21,0,.41.62-.25.21-.21H109l0-.33-.42-.66.21-.45v-.33h.29l.16-.17-.33-.21Zm-1.45,10.09.29.29.09-.29Zm0,2.07.21-.16-.16-.17Zm0,3,.29,0-.24-.33Zm0,8.89.29-.33-.2.09Zm0-13.07.24-.12-.16-.21Zm0,7.78h.16l-.08-.21Zm.16-12.12.17-.17-.25-.24Zm0,14.56.37-.12-.12-.25ZM107.83,15l.08-.29-.17-.62h-.2l.16.62Zm-.21,6.12.37.17v-.41l-.25-.21Zm0,12.54.58.08-.17-.29-.33-.12Zm.45,1h.38l-.29-.62h-.29l-.25-.16.12.28.21.21Zm-.45.29.29.25-.08-.21.16-.25Zm.45-11.21-.37-.62,0,.33.13.29Zm-.37-11.46h.17l0-.25h-.21Zm0,14.19h.13v-.16h-.13Zm0-.54.17-.08-.17-.12Zm.33,1.24-.12-.24-.21-.13.05.33.2.17.79-.42,0-.33-.33-.08,0-.29-.21.25,0,.37h.33l-.29.21Zm-.33,10.22.62-.08.17.33h.29l-.37-.54-.62,0Zm.71-5.17-.17-.25-.29-.08-.16-.21,0,.33.08.21.25.08ZM107.83,23l.24-.09.13-.2-.25,0Zm0,6.2.2-.08.13-.25-.33-.08Zm.16-8.64.08-.29-.2.12Zm-.08-7.12.33.21.21.25-.17-.58Zm0,22.17.83.09.16-.09.25.46.12-.37v-.25l-.66.08-.54-.16Zm.08-8,.37-.08.25-.25-.37.08Zm0,.74.21.33.25-.16L108.2,28Zm.37,3.15-.08-.21-.29,0,.13.29ZM109,33l.17-.29-.29-.08-.41-.38-.13.25-.2.17L108,33l.29.08.08-.33h.25l.13.25v.37l.24.17ZM108.16,35l.12.21.41,0-.24-.21Zm.12-14,.25,0,.16-.2Zm0,1.45.41.17-.08-.71-.16.29Zm0,.79.46-.09-.09-.25-.29-.08Zm.17,1.28.08-.29-.08-.25-.13.33Zm0,5.58.24,0,.29-.21-.33-.12Zm.08-4.88.16,0-.16-.2Zm.16,6.7,0-.25-.21-.12v.25Zm-.16,2.24L109,34l.12.29.08-.17,0-.28-.5,0Zm0,.45.21-.16h-.13Zm.08-14.35.46-.08-.09.45.29-.17.17-.28-.25-.29-.37-.17-.08.25Zm.21,18.53.08-.29-.21.12Zm0-14.19H109l-.08-.25Zm.16,6,0-.25-.21-.13Zm-.16,1.65H109v-.12h-.16ZM109.69,14l0-.29-.25-.12-.33-.05-.17.25.37.09Zm-.79,23.74h.17l.08-.2h-.25Zm.08-10,.21.13-.12-.29Zm0,1.82.29.29-.2-.37Zm.09-13.65.37-.25-.25,0Zm.2,2.11.09-.45-.29.2Zm-.12,15.68.41.08.25-.16-.37,0Zm0,3.35.21-.17-.17-.29Zm0,1.07.21.25.37,0V38l.25.21,0-.33-.33-.12-.25.2Zm0-19.77.42-.08.08-.33-.33.12Zm.87-4.38,0,.33-.21.2-.29,0-.25.13.54.33.17-.25.29-.17v-.66Zm-.79,19.19.25.12.66,0,.34-.09-.29-.12-.38,0-.24-.25.28-.21-.16-.37-.37.54Zm.42-9.47h-.13l0-.25-.16.37.25.17Zm-.08,4.71.08-.45-.33.08v.21Zm-.17-10.75.37,0,.25.21.29-.09-.21-.33-.49,0Zm.54.54-.17.29.08.33-.45-.09,0,.46.13.16.12-.33h.33L110,18.6l.16-.2.29,0,.17-.25-.17-.17-.16.17Zm-.54,7.11.29-.12.08-.29-.25.12Zm.25,9-.25.08.12.12Zm-.25.41.08.21.37-.21Zm.29-18.78.21,0,.24.08V15.5l-.37,0-.2-.21-.09.29Zm-.21,5.63.21,0,.25.12.16-.25-.29-.12-.29.08Zm.21,1.07.25-.45-.46-.09,0,.34Zm.16,4.06-.08-.21-.29,0,.17.25Zm.09,4.88-.17-.17-.29-.08L110,32l.12-.24,1-.17V31.3l-.58.21-.38,0V31.1H110Zm-.37-10.63.24-.09.13-.29-.25.13ZM109.69,37h.2l-.2-.17Zm.49-20.48-.24,0-.21.21L110,17l.16.25,0-.38.29-.16,0-.33-.33-.37,0,.29Zm.09,18V34l-.46-.16,0,.33.17.2Zm-.46,4.71.25.17.08-.29Zm.08-10.3.29.08-.12-.2Zm.46-3.27-.08-.29-.29-.08.12.25ZM110,30.93l.54.17-.09-.54-.41.08Zm.08-6.7.33,0,.21-.13-.33-.62v.33l-.13.21Zm.46,4-.29-.12-.17.12ZM110.18,26l.17-.09-.17-.12Zm0,3.68.5.08.17-.33-.17-.21-.25.29Zm0,5.87.34-.25-.29,0Zm0,.54.34.37.28-.16.29-.34.13-.28-.17-.21-.12.37-.21.21-.29,0Zm.09-7.41h.25v-.24h-.17Zm.08-8.72.21-.09-.13-.2Zm0,1.53.08.33.25-.17.12-.33-.16.13Zm0,12.24.08.29.21-.16-.12-.21Zm.37-20.48-.29-.16.09.21Zm-.2,2.36.2-.08h.42l-.13-.29-.29-.16-.29.16Zm-.09,5.26.25.08,0-.46-.2.09Zm0,9.64.29-.25-.2-.05ZM110.52,16h.16v-.13h-.16Zm.08,21.22h.29l-.21-.29Zm.08-9.15H111l-.25-.29Zm0-6h.17v-.17h-.17Zm.33,4.34-.12-.25-.21-.12.13.21Zm-.33.37.17.09-.09-.21Zm.08,6h.29l.25-.21-.29.09Zm.09-8.31v.24l.33-.12-.08-.21Zm.08-4,.08-.12-.08-.16Zm0,6.75.37-.09-.08-.33-.17.21Zm0,2.73v.29l.29.16.25-.29-.25-.33,0,.29Zm.21,7.65.08-.21-.08-.25H111l0,.29Zm-.13-.7.17-.17-.08-.21Zm.38-21.6-.13-.2-.16.12Zm-.29,19.86.24,0,.25-.12.25-.62-.29.12-.25-.12.13.24-.13.25Zm.45-1.95-.25-.37v.37Zm-.08.54h.16l-.24,0Zm.08-8.39.29-.29.17-.38-.34.13-.24.25Zm-.08-3.44.2.08-.12-.2Zm.08-2.19h.12v-.17h-.12Zm.08,16,.38-.25-.29,0Zm0-22.55h.17V13h-.17Zm0,15.8H112v-.2h-.16Zm.09,7.66.08.25.29.2-.21.54.33-.17.09-.29-.09-.33-.2-.2Zm.62,0-.09-.33-.2-.13.08.29Zm.08,2-.12-.25-.21.09Zm-.33.91h.16v-.16h-.16Zm.16-1.36.3.08.24-.08-.12-.25-.25-.17Zm.17-1.45h.17v-.17h-.17Zm.17.58h.12v-.13h-.12Zm.66.91v-.29l-.17-.17V38Zm.16-2,.09-.12.2-.08-.53-.09Zm-.16.71.29-.13.33-.41-.54.25-.16-.33,0,.33Zm.45,1.44.29-.12,0-.33-.12.25Zm.46-2.81-.21.08.13.13Zm-.08,1.66h.16l.08-.21h-.16Zm.08-1.12.62.08-.17-.25-.29,0Zm.45,3.43-.2-.37,0,.29Zm.46-2.15h.16v-.16h-.16Zm.33-.54-.17-.37-.08.25Zm.83,1.45.24-.21-.29.05Zm.16-2.07v.25h.21l.08-.25-.21,0Zm.37.25.21,0-.12,0Zm.38-1.07h.41l.21-.17-.38,0Zm.86.33.25,0,.29.08.21-.29h-.29l-.25-.17-.12.21Zm1.37,4h.17v-.12h-.17Zm.62-2h.12v-.16h-.12Z" transform="translate(-7.08 -2.24)"/><path class="a" d="M145.85,34.87l.29-.2.54.2-.08.33-.21.21.08.33.21.21-.08-.7H147l0-.38.25.09.08-.21.42,0,.24.16.46-.29L149,35l.5-.29.25.08,1.65-.08.34.12.24,0,.25.21.33.53.21,1.08-.08.29-.17.16.25.54-.08.33v.71l-.21.33.21.45v.37l-.25.17-.29.46-1,.12-1.15-.08-1,0-.37.08-.45-.25-.29.17-1.45.08-.08-.29-.33-.08.24.21-.28.12-.71,0-1,.08-.29-.16-1.57,0-.29-.13-.37.25-.67-.08-2.68.08-1-.25H137l-.2-.16-.17-.29-.29-.91.08-.66V36l.08-.29.21-.16-.21-.25-.08-.33.21-.21-.29-.37.29-.17-.29-.2.29-.29-.29-.42.29-.12-.29-.33V31.77l.16-.33-.16-.45V29.83l.16-.13-.16-.62.16-.29-.16-.62v-.33l.16-.29-.12-.95.17-.29-.21-.21.12-.57-.12-1,.12-.62-.12-1,.21-.54-.13-.29.21-.37-.29-.25.21-.37-.09-.37,0-2.07.21.08-.21-.45V15.8l.08-.33-.16-.29.21-.37-.17-.33.17-.74-.17-.33,0-.54.17-.58,0-.33.2-.17.62-.25.71-.12.62.08.25.17.29-.17,1-.12.29.21.62-.13.91,0,.41.62.29,0,.17.25v.37l-.17.58.13.62-.09,1.37,0,.66.13.33-.37.13L143,17l0,1,.08.2-.17.25.13,1.28-.17.29.13.71V22l.08.33-.13.33V23l.13.21-.08.62.08,1.74-.17.29,0,.29.13,1,0,.33-.16.33H143l-.09,1.32.09.67-.25.29.21.62v2.64l-.21.17.37.83L143,35l.29-.12.12-.25h1.28l.25.12-.45.46.25.2.41-.25.33-.08-.08-.45.37-.09Zm-8.73-19.31.42-.38-.42-.16-.08.29ZM137,23.21l.17.08.08-.16-.17-.09Zm0,14.89.25-.37-.25.12Zm.17-1.78.29-.12,0-.33-.13.25ZM137.54,21l0,.34.16.24-.16.21-.12-.33-.09.29.17.25.54-.25.2-.21H138l-.16-.25,0-.37Zm-.08-.45.28-.08-.08-.13h-.12Zm.12-1.45,0,.29.37.42-.08.37.25-.09.12-.2.21.08,0,.29.29-.17.16-.28v-.62h-.33l-.25.45-.29.08-.2-.33.37-.08.08-.21-.33.13Zm0,9.64h.2l-.2-.17Zm0,5.54.25-.29h-.25Zm.08.54.37-.21-.45-.24v.29Zm0-15.88h.25l-.08-.46Zm1.45-1-.33-.12-.41.08-.25-.25-.29.09-.13.29,0,.24.29,0,.17.17.37-.08.25.08-.25.08-.12.17.29.08.16.16-.37-.08.17.21.33-.13-.13-.24.38-.25.62.41-.17.29.33-.12,0-.58-.5-.29.17-.29,0-.33-.41.21Zm-1.37-3.35.21.25.25-.16-.25-.13Zm1.7.09.08.62-.53.16-.09-.25-.62.21.29.33.42-.08.29.16-.25.13-.38,0,0,.33-.09.25-.58.7-.2-.25v.42l.29,0,.53.24-.28-.37.2-.37.42,0,.29-.21.12.21,0,.42.62-.25.21-.21h-.38l0-.33-.41-.66.21-.46V15.1h.29l.16-.16-.33-.21ZM138,24.74l.29.29.09-.29Zm0,2.07.21-.17-.17-.16Zm0,3,.29,0-.25-.34Zm0,8.89.29-.33-.2.08Zm0-13.07.25-.12-.16-.21Zm0,7.78h.17l-.08-.21Zm.17-12.12.17-.17-.25-.25Zm0,14.56.37-.13-.12-.25ZM138.65,15l.09-.29-.17-.62h-.2l.16.62Zm-.2,6.12.37.17v-.42l-.25-.2Zm0,12.53.58.09-.17-.29-.33-.13Zm.45,1h.38l-.29-.62h-.29l-.25-.17.12.29.21.21Zm-.45.29.29.24-.09-.2.17-.25Zm.45-11.21-.37-.62,0,.33.12.29Zm-.37-11.46h.17l0-.25h-.21Zm0,14.19h.12v-.17h-.12Zm0-.54.17-.08-.17-.13Zm.33,1.24-.12-.25-.21-.12,0,.33.21.16.79-.41,0-.33-.33-.08,0-.29-.21.25,0,.37h.33l-.29.2Zm-.33,10.22.62-.09.17.33h.29l-.37-.53-.63,0Zm.71-5.17-.17-.25-.29-.08-.17-.21,0,.33.09.21.24.08ZM138.65,23l.25-.08.13-.21-.25,0Zm0,6.21.21-.09.13-.24-.34-.09Zm.17-8.65.08-.29-.2.13Zm-.08-7.11.33.2.21.25-.17-.58Zm0,22.17.83.08.16-.08.25.46.12-.38v-.25l-.66.09-.54-.17Zm.08-8,.37-.09.25-.25-.37.09Zm0,.74.21.33.25-.17L139,28Zm.37,3.14-.08-.2-.29-.05.12.29Zm.62,1.57.17-.28-.29-.09-.41-.37-.13.25-.21.16-.12.29.29.09.08-.33h.25l.13.24v.38l.24.16ZM139,35l.12.21.41,0-.24-.2Zm.12-14,.25,0,.16-.21Zm0,1.45.41.16-.08-.7-.16.29Zm0,.78.46-.08-.09-.25-.29-.08Zm.17,1.28.08-.29-.08-.24-.13.33Zm0,5.59.24,0,.29-.21-.33-.12Zm.08-4.88.16,0-.16-.21Zm.16,6.7,0-.25-.21-.12v.24Zm-.16,2.23.49-.16.13.29.08-.17,0-.29-.5,0Zm0,.46.21-.17h-.13Zm.08-14.36.46-.08-.09.46.29-.17.17-.29-.25-.29-.37-.16-.08.24Zm.21,18.53.08-.28-.21.12Zm0-14.18h.16l-.08-.25Zm.16,5.95,0-.25-.2-.12Zm-.16,1.66h.16v-.13h-.16ZM140.52,14l-.05-.29-.24-.13-.33,0-.17.25.37.08Zm-.79,23.74h.17l.08-.21h-.25Zm.08-10.05.21.12-.12-.29Zm0,1.82.29.29-.2-.38Zm.09-13.65.37-.25-.25,0Zm.2,2.11.09-.46-.29.21ZM140,33.67l.41.09.25-.17-.37,0ZM140,37l.21-.16-.17-.29Zm0,1.08.21.25.37,0V38.1l.25.21,0-.33-.33-.13-.25.21Zm0-19.77.41-.09.09-.33-.33.13Zm.87-4.39,0,.33-.21.21-.29,0-.25.12.54.33.17-.24.29-.17v-.66Zm-.79,19.2.25.12.66,0,.33-.08-.29-.13-.37,0-.25-.24.29-.21-.16-.37-.37.53Zm.42-9.48h-.13l0-.24-.16.37.24.16Zm-.09,4.72.09-.46-.33.09v.2Zm-.16-10.76.37.05.25.2.29-.08-.21-.33-.5,0Zm.54.54-.17.29.08.33-.45-.08,0,.46.12.16.13-.33h.33l-.08-.33.16-.21.29,0,.17-.25-.17-.16-.16.16Zm-.54,7.12.29-.13.08-.29-.25.13Zm.25,9-.25.09.12.12Zm-.25.42.08.2.37-.2Zm.29-18.78.2,0,.25.08v-.37l-.37,0-.21-.21-.08.29Zm-.21,5.62.21,0,.25.13.16-.25-.29-.13-.29.09Zm.21,1.08.25-.46-.46-.08,0,.33Zm.16,4.05-.08-.2-.29-.05.17.25Zm.09,4.88-.17-.16-.29-.09.46.79.12-.25,1-.16v-.29l-.57.2-.38.05v-.46h-.2Zm-.38-10.63.25-.08.13-.29-.25.12ZM140.52,37h.2l-.2-.16ZM141,16.55l-.25,0-.2.21.29.2.16.25,0-.37.29-.17,0-.33L141,16l0,.29Zm.09,18v-.45l-.46-.17,0,.33.17.21Zm-.46,4.72.25.16.08-.29Zm.08-10.3L141,29l-.12-.21Zm.46-3.27-.08-.29-.29-.08.12.25ZM140.81,31l.53.16-.08-.54-.41.09Zm.08-6.71.33,0,.21-.12-.33-.62v.33L141,24Zm.45,4-.29-.13-.16.13ZM141,26l.17-.08-.17-.13Zm0,3.68.5.09.16-.34-.16-.2-.25.29Zm0,5.88.33-.25-.29,0Zm0,.54.33.37.29-.17.29-.33.13-.29-.17-.21-.12.38-.21.2-.29,0Zm.09-7.41h.24v-.25h-.16Zm.08-8.73.21-.08-.13-.21Zm0,1.53.08.33.25-.16.12-.33-.16.12Zm0,12.25.08.29.21-.17-.13-.21Zm.37-20.48-.29-.16.08.2Zm-.21,2.36.21-.08H142l-.12-.29-.29-.17-.29.17Zm-.08,5.25.25.08,0-.45-.21.08Zm0,9.64.29-.25-.21,0ZM141.34,16h.17v-.12h-.17Zm.09,21.22h.29l-.21-.29Zm.08-9.14h.29l-.25-.29Zm0-6h.17V22h-.17Zm.33,4.35-.12-.25-.21-.13.12.21Zm-.33.37.17.08-.09-.21Zm.08,6h.29l.25-.21-.29.08Zm.09-8.32v.25l.33-.13-.09-.2Zm.08-4,.08-.12-.08-.17Zm0,6.74.37-.08-.08-.33-.17.21Zm0,2.73v.29l.29.17.25-.29-.25-.33,0,.29Zm.21,7.65.08-.2-.08-.25h-.21l0,.29Zm-.13-.7.17-.16-.09-.21Zm.37-21.59-.12-.21-.17.13ZM142,35.2l.25,0,.25-.13.25-.62-.29.13-.25-.13.12.25-.12.25Zm.46-1.94-.25-.37v.37Zm-.08.54h.16l-.25,0Zm.08-8.4.29-.29.16-.37-.33.12-.25.25ZM142.34,22l.2.08-.12-.21Zm.08-2.19h.12v-.17h-.12Zm.08,16,.37-.25-.29,0Zm0-22.54h.17V13h-.17Zm0,15.8h.25v-.21h-.16Zm.09,7.65.08.25.29.21-.21.53.33-.16.09-.29-.09-.33-.2-.21Zm.62,0-.09-.33-.2-.12.08.29Zm.08,2-.12-.25-.21.08Zm-.33.91h.16v-.17H143Zm.16-1.37.29.09.25-.09-.12-.25-.25-.16Zm.17-1.44h.16v-.17h-.16Zm.16.57h.13v-.12h-.13Zm.67.91v-.29l-.17-.16v.29Zm.16-2,.08-.12.21-.09-.54-.08Zm-.16.7.29-.12.33-.42-.54.25-.17-.33.05.33Zm.45,1.45.29-.12,0-.34-.12.25Zm.46-2.81-.21.08.12.12ZM145,37.23h.17l.08-.21h-.16Zm.09-1.11.62.08-.17-.25-.29,0Zm.45,3.43-.2-.37,0,.29ZM146,37.4h.16v-.17H146Zm.33-.54-.17-.37-.08.25Zm.82,1.45.25-.21-.29,0Zm.17-2.07v.25h.21l.08-.25-.21,0Zm.37.25.21,0-.12-.05Zm.37-1.08h.42l.21-.16-.38,0Zm.87.33.25,0,.29.08.21-.29h-.29l-.25-.16-.12.21Zm1.37,4h.16v-.12h-.16Zm.62-2H151v-.17h-.12Z" transform="translate(-7.08 -2.24)"/><path class="a" d="M161,24l.28.29-.08.66v2l-.2.58.28.21-.08,1.9-.12.62.16.71,0,.37-.29.16.29.13,0,.66-.16.66.16.29-.08,1.37.12.62-.12,1,.12.58-.2.37.12.33,0,.66-.08,1,0,.37h-.45l.16.29V40h-.37l-.08.2-.54.25-1.2-.12-2,.08-1.4-.12-.58-.91.21-.62-.09-.21,0-.62-.16-.25.08-.66.21-.54L154.7,36h.21l-.21-.29.08-.7-.16-.25.16-.25,0-.29-.2-1.32,0-.33.16-.33-.12-.66.12-.25-.2-.37.08-.29,0-1.33.08-.37-.2-.37.08-.33v-.75l.12-.33-.12-2,.12-.67-.12-.7.12-.74-.2-.46.08-.29v-.66h.21l-.17-.29-.12-.74.16-.33.29-.21L154.7,20l.08-1.66L154.7,18l.08-.33-.08-1.32.12-.34-.08-.57V13.54l-.12-.33.2-.58-.08-.66,1.16-.62.37,0,.25.13,1.28-.17,1.9.08.62-.08.46.41.37.5.08,1.08-.16.7.21,1-.05.37-.12.17,0,.29-.12.33.12.21,0,.37-.08.7.12.46L161,19.54l.2.58,0,.7-.08,1,.12.66-.16,1.28Zm-6,4.59.29,0-.13-.21Zm.29,1.53.24.12.29-.2h-.29Zm.33-2.61.2.13,0-.38Zm.53,1.74.13-.37-.66-.08.16.33Zm-.53,3.31.37-.17-.08-.24-.13.2Zm.62-8.81-.33,0-.21-.12.08.33H156Zm-.25-4.88,0-.29-.17-.17,0,.29Zm-.21,4.42h.21l-.08-.2Zm.29,7.57.08-.37h-.37l0,.25Zm.17-4.71v-.54h-.33l.08.33Zm.2-4.14-.16-.33-.29.08.2.5-.12.29.33-.21.46-.49Zm-.2-4.8-.17-.33,0,.21Zm.12,20.69.5,0,.12-.2-.66-.21-.25-.17.12.34Zm-.21-10.76.29.12v-.29l-.2-.33Zm.38,1-.09-.37-.29-.16.17.33ZM156.06,34l.29-.09.17-.16h-.33Zm1.12,2.89-.12-.45-.38,0-.16-.21h-.46l.21.29.66.25ZM156.73,32l-.34,0-.24.17.29.16.7.08-.33-.66-.21-.25,0,.29Zm-.58,2.53.24-.17-.12-.25Zm0,2.19h.12v-.17h-.12Zm0,2.81h.2l-.2-.12Zm0-9.06.33-.08-.08-.37-.25-.25,0,.33Zm0,4.59.33,0,.21-.29-.29.13Zm0,5,.29-.08.12-.21-.33,0Zm.25-23h.29l.16-.17-.62-.37.12.29Zm-.17,5.71h.33v-.21Zm0,2.31h.17v-.16h-.17Zm.08-.54.25.29.13-.24.2-.17.13-.25-.25-.08-.17.29Zm.17-1,.16-.33-.24,0Zm0,9.76.41-.08.21-.29-.41-.16-.13-.29-.12.53Zm0-4.34.25,0,.29-.12V28.6h-.38Zm0,.66h.16v-.12h-.16Zm0,7.82.25,0,0-.29Zm1-11.83-.37,0-.29-.08-.25,0,.66.21ZM157,28.23l-.08-.46h-.29l.13.29Zm-.37,3,.21.08V31l-.13-.12Zm.46-15.56h-.38l.46.13.29-.67-.37.17Zm.12,14.73.12.25.25.12.13.25.37-.08-.37-.42v-.37l-.38.12-.62-.16v.25l.25.12Zm-.45-11.17.33-.21.29-.08-.09-.33-.24,0-.21.29Zm.45,8.56.25-.45-.37-.42-.33-.12.33.7Zm-.37,2,.7-.17.17.25L158,30l.16-.09.21.21v-.66l-.17-.21-.49-.25.45.54-.16,0-.38-.37-.2.25-.29.12Zm.7,4.76-.21,0-.12-.46-.25.08,0,.25.21.13.08.24.41.05.29.12-.24-.74-.21-.25,0,.2Zm-.37-11.79h-.21l.17.08.41.78.13-.28-.13-.34.13-.41-.13-.29-.21.25ZM157,29.22l.29.17v-.25Zm0,5.83h.17v-.16H157Zm.17-12.61.12-.09,0-.37h-.16l0,.21Zm-.08,9.22h.2v-.21h-.12Zm.08-7.61.33-.08.12-.33-.33.12Zm.54,4.55-.21-.33-.29-.25.17.37ZM157.26,15h.25l-.25-.29Zm.42,9.93,0,.37h-.37l.29.21.24,0,0-.33.42-.75-.29.21Zm-.25-4.26.08.2.29-.2Zm.08,6,.29.5.17-.5v-.29l-.17.21Zm0,1.33.29.12.08.33h.38l-.17-.25,0-.37-.46-.16Zm0,4.26.17.25-.09.2.25-.2.42-.09-.17-.24-.29.08Zm0,3.31.29-.33-.21-.09Zm.17-20.19.29.33,0-.33Zm0,1.16.2-.12-.16-.17Zm0,10.92.33.17.25-.09-.21-.33Zm0,11.91.2-.12-.16-.17Zm0-19.85h.16v-.17h-.16Zm.41,19-.41-.17.21.29Zm-.33-14.85h.54l-.29-.29Zm0,12.61.17.09h.37l-.29-.21Zm.08-19.48.33,0,.34.12.33-.08-.83-.37Zm0,1h.29l.09-.2-.29-.09Zm1.29,4.14-.91-.37-.25.24-.13.38.54-.42.5.25ZM158,16l.62-.08-.17-.25-.29.13Zm.29,18.62.08-.54-.29.17-.08.29Zm-.09,2.6-.2-.37v.29Zm.09-5.58v-.29l-.21.17Zm-.21,4.22.25,0,.12-.29-.25.09Zm.08-17.33.33,0,.21-.29h-.33Zm.29,12-.29-.24.08.24Zm-.25-16.83.09.16.16-.16Zm0,17.21h.17v-.17h-.17Zm.54-4-.12-.24-.33-.13.16.33Zm-.21,4.8-.24.17v.29l.29-.13Zm-.08-3,.33-.13.38.21.12-.37-.29-.05V28.1l-.33.17-.25.25Zm.25-3.89V24.5h-.25Zm-.25,2.73h.17v-.13h-.17Zm.25,3.6-.25.24.37.46.34,0,.12-.21-.37-.08,0-.29-.13-.62.67-.08.29-.13.12-.25-.62,0-.54.38-.12.24Zm-.25,5.66.33,0,.13-.12-.38-.25Zm.37-7.32-.2-.33,0,.33Zm0,9.14-.24-.08,0,.29Zm-.2-18.4h.2l-.2-.13Zm.08-1.62.25-.08.12-.21h-.29Zm0,15.31.37-.09.09-.33-.25.09-.25-.09Zm0-7.57.25.08-.17-.25Zm0,10.09.62-.08h0l.25,0,.17-.21-.54-.12,0,.33-.5-.33Zm.25-1.24.08-.21h-.25Zm.29-20-.12-.29-.25-.17,0,.29Zm-.37,7.94,1-.29-.66-.12-.25.12Zm.37-7.32-.29-.08.12.2.25,0,.25.29V16l-.17-.29ZM159,34.27h.17V34.1H159Zm.29,4.51v-.25H159Zm.16-7.57-.08-.34-.2,0,.12.21Zm-.24-16.55.49.12-.12-.33,0-.33-.29.17Zm0,9.68.33-.17-.21,0Zm0,3.14.24.62v.58l.38-.2-.25-.5,0-.29.37-.21-.29,0-.17-.12Zm.08-3.89.25-.08-.25-.33Zm.41,8.32,0-.25-.16-.29-.29-.08.21.33Zm-.16.29h-.25l.08.21Zm0,2-.25-.2,0,.2Zm-.21,2.2.08,0h0Zm0-18.29.17.13-.09-.21Zm0,3.11h.17v-.13h-.17Zm0,5.91.25.08h.33l.21-.16-.33,0-.46-.29Zm.08-6.66h.34l.24.08.17-.16-.29-.21h-.46Zm.29,16.79,0-.45h-.25v.29Zm-.2-1.61.16.09,0-.17Zm.08-18h.12l0-.25Zm0,13.28.33-.05.12-.28-.28.12Zm.21,2.89,0-.29-.17,0Zm.33-9.55-.46-.54,0,.25.17.2Zm-.46-8.61h.13l.08-.25h-.21Zm0,10.14V26l.09-.25Zm.09,1,.2-.12-.12-.17Zm.33,4.51.2-.46-.33.09-.12.2Zm-.17-1.9.29-.29-.33,0Zm.08,6.24.21-.12-.21-.17Zm.09-22.58.29.08-.13-.21Zm0,10,.16-.13-.16-.12Zm0,1.28.08.16.21-.2Zm.08,1.07h.17l.08-.16-.25-.08Zm.46,1.82,0-.29-.24.09.12.2Zm-.29,9.48h.37l-.13-.21h-.16Zm.37-13.9-.08-.25-.21.08Zm.08,6.41-.21-.29-.08.21Zm0-8.15.09-.41-.3.2Z" transform="translate(-7.08 -2.24)"/><path class="a" d="M171.53,11.61l.7-.2.29.12.37-.21.29.09,1.78-.05.54.25,1.32-.2,1.29-.05,1.4.25.17.25.29,1.28,0,1.41L179.88,16l-.2.91-.91.28-.71.09-1-.13-1.41.17-4-.13-1.28.21-.62.21,0,.7-.12.66.12.25-.21,1.28.25,1.24-.16.38.12.7.41.46.34.12.33-.08.29,0,.37-.08.49.2.54-.2.66.12.75,0,.29-.08.7.12,1-.08.34.16.33-.16.37.58.08.37.25.37-.08,1.2.12,1.65,0,.29-.37.75-.71.25-.33-.13-2.07.09-.33-.13-.66.13-.33-.05-.25-.16-.25.12-1.77.17-.29.16-.21.25v3.56l-.17.33.17.5.08,1.11-.16.29.08.29-.17.17.25,1.24v1.2l-.16.7.12.54,0,.37-.29.33-.17.33-.62.25-2,0-.62.13-.54-.21-1,.08-.75-.12-.16-.21-.25-.58-.12-.7,0-.7.12-.33-.16-.62.33-.29-.33-.46.08-.33,0-1,.12-.54-.25-.33.13-.66-.09-1.37.09-.87.12-.29-.16-.58.16-.58.17-.2-.38-.83v-.29l.21-.29-.25-.5.17-.62-.08-3.84.16-.21-.16-.45.16-.79-.08-1,.16-.29-.33-.62.25-.21-.21-.58,0-.33.16-.25-.12-.62,0-1.12-.17-.33.17-.45-.17-.71.17-.45-.17-1.82.33-1.2.83-.41.46.41-.09-.33.33-.08.71,0,.33.12.62-.2.66,0,.25.16.62-.2h3.06Zm-8,12.29.09.25.2-.34Zm.75,5.21-.13-.21-.24-.12.12.29ZM164,18l.29.25h.29l0-.29-.25,0Zm.21,17.05-.21.08.12.12Zm-.09-21.18.17-.25v-.21l-.21.25Zm.09,11.7.2-.24,0-.29-.16.24Zm.08-5.41.7.28-.12-.28-.33-.17Zm.08,5.95h.38l-.17-.29Zm0,3.72.13.29.25.09h.37l-.08-.29Zm.38-7.86v-.24l-.17-.13,0,.25Zm-.21,14.61.25-.17-.21-.25Zm0-13.61.25-.17-.17-.2Zm.25,5.25-.08-.37-.13.25Zm.21-7-.38-.33.09.33.45.37-.08.29.08.17.25-.25.74-.13-.08-.41-.33.17-.25.24-.08-.41.25-.08.29,0-.17-.25-.29-.16-.16.29Zm.49,5.17h-.37l-.17-.08.05-.29-.25.16.2.58.29-.12Zm-.7-2,.16.08.05-.17Zm.29-6v-.33L165,18l0,.29ZM165,29l.25,0,.21-.21-.17-.21-.08.21Zm.08,5.79.21-.13-.16-.16Zm.13-18.33.16-.24-.16-.21-.08.25Zm.25,3.15-.33-.25.08.29Zm1,3.8-.87-.12-.37,0,.33.41.45-.16-.16.37.29.17.25-.46.37.21-.13-.25ZM165.57,28l-.41-.08.2.25Zm-.33,4.88.17-.29-.25-.08Zm0-6.62.17-.12-.17-.12Zm.08-12.36h.38l.12-.29.21-.21h-.33l-.25.16Zm0,1.48.29,0V15l-.16.17Zm0,2.49v.12l.09-.21Zm0,1.28h.29l-.12-.21Zm.29,6.25,0-.29.13-.25-.29,0-.09.37Zm-.29,6.57h.17l-.08-.2Zm.25-12,.37.08-.16-.21Zm0,10.79.25.29h.33l-.21-.33Zm0-7.9h.17l-.17-.2Zm0,6.66h.17l-.08-.25Zm.09-10.22h.37V19.1l-.21,0Zm.08-3.51.08.37.08-.21.29,0-.12-.16Zm.78,6.16.05.33-.58,0-.25.08.78.34.21-.13.29,0,0-.46.29.09-.25-.29-.21.16Zm-.78,2.53H166l-.25-.21Zm0,4.13h.16v-.33h-.16Zm.08-10.71.21-.21-.13-.25Zm.21,1.94,0-.25-.25-.16,0,.29Zm-.21,13.9.21-.12-.13-.21Zm.08-17.41.29,0,.17.16-.25.54.33,0,.54.29.25-.25.58-.08-.17-.83-.29.13-.16.62-.29.16-.13-.29,0-.41-.21-.29-.29.16ZM166.15,28l.08-.29-.2-.08-.09.25Zm-.12-.74.33-.13.2-.29-.49,0L166,27Zm.29-8.19v-.29l-.25-.25.16-.17V18l-.2.17v.33l.12.33Zm1.61,4.75.21-.08,0-.25-.16-.29-.29-.2-.33-.09-.33,0-.29.34h-.29l.25.16.25,0,.33.17.16-.25.21-.13-.13.46h.38l-.09.45.29.17v.33l.17.21-.13.33-.33,0-.16.37.33.16-.37.21-.25-.58.25-.16-.33-.17-.13-.29-.25-.25-.45.09-.17.53.38-.2.29.16.16.29-.21.08-.62-.08-.2.21.49.33.33,0,.17-.37.17.25-.05.29.58,0,.46-.41,0-.29.41-.16.12.2-.12.33.37-.16-.08-.33-.41-.37-.13-.25.08-.33-.24-.13ZM166.32,26l-.09-.21-.2,0ZM166,30.39h.12v-.16H166Zm0,2.9h.29v-.21Zm.2-4.64,0-.2-.2-.13Zm.33-8.47-.41-.25.12.33.67.2.12-.37-.21-.16Zm0,.62-.33-.09.17.29Zm.21,6.7-.37-.09.08.29.21.17-.13.25.21.29.17-.25,0-.62.12-.29-.33-.37,0,.29Zm-.37,1.82.58.08.25.16,0-.33-.25-.29-.17.21h-.29Zm.21-15h.2l.13-.25ZM168.92,18h-.49l-.29.17-.13-.33-.41,0-.37.5-.29.16-.25.7.37.5.25.17-.17.53.29.09.58-.17-.2-.25,0-.29-.33,0-.21-.16.16-.46-.33-.2v-.25l.33.08.09-.33.45-.37,0,.16-.12.21.25.25.12.29.33-.62.38-.13,0-.41-.21,0Zm-2,2.78-.25.45H167l1-.33-.21-.17-.33.05Zm-.25,15.63.25-.08.08.25.21-.33-.33-.09Zm.08-14.73.37-.12.54-.33h-.33l-.33.21Zm.17-6.57-.09.45.62.25.09-.33.16-.25V15l-.25-.16-.12.29Zm0,11.29.29-.21-.29-.16Zm0,2.23.2.09-.12-.25ZM167,14.51l.21-.09-.17-.08Zm0,20.31.21-.08-.17-.05Zm0-2.36.25-.17-.17-.2Zm0,1.82.25-.17-.17-.2Zm.25-7.61V26.5l-.21.05Zm-.17-13h.17v-.17h-.17Zm.09,17.08.16.09-.08-.21Zm.08-6.49h.08l.08-.12h-.16Zm0,3.85.25-.21.12-.33-.21-.08-.16.33Zm.29-15v-.25h-.21Zm-.21,16.71h.17v-.12h-.17Zm.29-15.71-.08-.34.08-.37-.25.21V14Zm0,8.56v-.21l-.12-.25.12-.16-.25.12v.29Zm-.21-5.13.46-.25-.46-.12Zm0,13.9h.21l-.12-.29Zm0,2.6.17-.12-.17-.12ZM167.6,27l.25,0-.09-.17Zm.33,3.06-.25-.37,0,.25Zm0-1.37.16-.16v-.41l-.16-.29-.12.24.08.25Zm.12,2.57V31l.17-.29v-.24l-.37.53Zm-.12-10,0,.29.08.62,0,.37.37.08-.16-.33.24-.62.25-.29-.29-.12Zm0-8.32h.21l-.21-.16Zm.21,1.29-.21.16.25.12,0,.34-.29.08,0,.41.25.25,0-.37.17-.25.24-.12-.12-.34.33-.08.25-.2-.21-.17-.16.33-.38-.33.09-.29-.17.21Zm-.21,12.2.29-.13-.29-.08Zm.37,2.89-.25-.37v.25Zm-.16-8.52.41-.08,0-.29-.21-.08-.12.16Zm.08,5.26.25,0,.08-.24Zm.16,2.15.38-.25-.13-.37-.25-.09-.16.42Zm-.08-10.84h.17l.08-.17L168.3,17Zm0,9.93.37-.17-.2,0Zm0,2.44.29.08-.12-.25Zm.08-3,.25.12.17-.16,0-.29-.29-.08Zm0,9.06h.25l.21-.21-.29,0Zm.09-11.67.33-.12.12-.25-.29.12Zm.12-9,0,.28H169l.29-.12.13-.25-.5.17Zm0,1.28.33-.17.33.17,0-.29-.41-.17-.13.25Zm.5,6.66-.5-.21.16.25Zm-.5,15.59h.21l-.21-.16Zm0-14.14.54.33.16-.33-.08-.21-.33.12Zm.08-4.18h.17l.08-.25h-.16Zm.25-3.6-.21.16.21.29.21-.24Zm-.08,10.59.25.2,0,.34.29-.21.08-.33-.13-.37-.28-.21V27Zm.08-3.64h.13l0-.25ZM169,12.44l.53-.12-.33-.09Zm.12,3.39.29,0,.12-.29-.08-.21-.17.21Zm0,9.85h.25l-.17-.33Zm.33-11.63.25-.08v-.25l-.17-.21,0,.29Zm.08,11.54h.29l-.16-.37.08-.33-.29.08v.33Zm0,.38.33-.17-.2,0Zm.17.82.37-.53-.54-.05v.38Zm0-14.19.29.09.25-.17.12-.25-.12-.2-.21.37Zm.16.91.29.05.25-.17.13-.25-.21-.16-.25.24Zm.54,1.82-.41-.12,0,.54.41,0,.33-.13.17-.25-.66-.86-.34-.17.13.29.41.46ZM170,14.05l.25.13.25-.21-.09-.21-.2.13Zm.08,2.15.33.09-.12-.25Zm.54,9.15.16-.29h-.53l.12.2Zm0-12.66.37-.09-.12-.24Zm0,11.37h.25l-.25-.16Zm0,3.27.37.08-.16-.2Zm.45-13.82.25-.08.17-.21-.37,0Zm.34,1.16v-.25l-.17-.2-.08.29Zm0,1.29v-.13h-.21Zm-.17,8.56h.29l-.29-.17ZM171.53,13h.12l.09-.21h-.17Zm0,13,.45.08,0-.25-.2-.12-.13.16Zm.21-1.16h.16l-.25,0Zm.24-8.94.21.42.25-.25-.17-.29Zm0-1h.17v-.12H172Zm0,10.71h.17v-.16H172Zm.87-12.08h-.37l.17.13Zm-.33,2.61.17.08.08-.16-.17-.08Zm0,11.54.25.08-.17-.24Zm1-11.7-.54-.63,0,.38.24.29Zm-.13,11.54v-.17l-.21,0Zm-.08-2.82.21-.24-.25.08Zm.29-11.46,0-.33-.17-.12,0,.29Zm.16.83.21.09.08-.25Zm.09,10.22h.2l-.2-.12Zm.08-8.52.45-.17v-.33l-.08-.2h-.25l0,.37Zm.12-2.15.25-.09.08-.2Zm.25,2.6V16l-.21,0Zm1.16-4h.12v-.16h-.12Zm.5,3.44v.16l.08-.25Z" transform="translate(-7.08 -2.24)"/><path class="a" d="M198.16,11.86l0,.33.12,1-.16.25.21,1.74-.13,1-.25.62-.2.25-1,.08-.24.17-1.74-.17-.33.13-.29-.13-.29.21-.71-.21-.29.13-1.86,0-.12-.25-.41.12-.33,0-.25.17-.38-.13-.33.09-.82.58.12.37,0,.66-.16.25.12.25v1l-.12.33.2.62,0,1.45.13.29.33,0,.21.17.12.24.08-.37.62.46v-.33l.29-.09.58,0,.21.21.29-.29.33.21.21-.21.33.13,1-.13v.21l.33-.13.62,0,.87.09.25.2.25.58,0,1.28.08.33-.17.29.13.34v.66l-.29,1.28-.25.17-.62.12-1.41.12-.45-.33-.46.42-1.36-.17-2.07.08-.45.54.12.33v.42l-.29.08.29.08-.08.66.16.62-.08.38,0,.7-.08.29-.25.25h.29l0,.29-.17.16.21.33-.21.29.67.91.86-.33.29,0,.25.21,0-.21.25,0,.91-.12.33.12.5-.2.29.16.87-.08.08.29.08-.29h1.16l1,.12.13-.12,1.9.21.12.37.29.25v.82l-.33.09.38,1-.13.25.13.29-.21,1.07.16.46-.12.29-.5.7H195l-.71.08-.37-.16-.91.16-.62-.16-.33.12h-.41l-.25-.2-.29.12-.62.08-1.9,0-.46.17-1.32,0-1.37-.13-.29-.16-.25.12h-.66l-.25-.12-.29.12-.62-.12h-.7l-.25-.25-.12-.29.16-.74-.2-.67,0-.37.12-.7.12-.25-.29-.25.13-.33v-.7l.08-.42-.21-.37.13-.29L182,33.58l.16-.62-.21-.38.09-.74,0-1,.12-.67-.17-.33.13-.62.25-.2-.25-.25.08-.37-.16-1.2h.45L182,27l0-.7.12-.29-.16-.66V25l.16-.28-.12-.34V22.2l0-.29.16-.16-.29-1.33v-.29l.13-.33-.13-.2.13-.25-.13-.29.09-.75.2-.7-.24-.37.12-.37v-.38l-.17-.66.13-.37-.13-.29.09-.33,0-1.74.08-.66.21-.58.45-.41.33-.13.29.09h1.94l.29.08.29-.13.71.05.25.16.28-.12.71-.09,1.45.09.91-.13.29.25.29-.08.16-.21,2,.13.86.16.34-.16.33-.05,1.07.09.25-.17.66,0,1.49.42ZM182.28,22.12h.12V22h-.12Zm.37-.08h.16v-.17h-.16Zm0,2.69.16,0-.16-.21Zm0,2.64h.29l.16-.16h-.33Zm.16-4.18.38.13-.17-.25Zm.13-2.93.41-.13-.29-.08Zm0,5,.25-.12H183Zm.41,8.57h-.41l.21.12ZM183,24l.7.21.29.41.09-.45-.87-.29Zm.08,3.89.29.08-.12-.2Zm.62-4.8.17-.54-.37-.16,0-.37-.29-.09.16.67.17.28Zm-.37-3.22.25.08.29-.08-.33-.09Zm.21-.63.08-.28-.25-.17v.29Zm-.17,8,.38,0,.24.2.17-.28-.29-.05-.25-.2Zm0,1.07h.25v-.2h-.16Zm.09,4.88.29.17h.58l-.42-.54-.29.13ZM184,19l-.08-.34.25-.29-.33.09-.29-.09.21.5Zm-.45,7.11h.16v-.17h-.16Zm.08,3.43.37-.16-.24-.08Zm.25.54,0-.21-.21-.24v.24Zm.46-.37H184l.34.21-.21.16,0,.29.37.17-.17.2-.33.09-.16.24.29.09.29.2.08-.29.21-.08.24-.25-.29-.12.17-.62-.37-.46,0-.33h-.21Zm-.25,6.7V36.1l-.21.17ZM184,22.57l.34-.37L184.1,22l-.17.29Zm.17,5.8-.25-.29,0,.24ZM184,19.68l.17.12.29,0,.16-.16-.33-.05Zm0,3.56.38-.13.41.08V22.9l-.21-.12-.33,0-.08.29Zm0,2.31.58-.25.21-.2h-.33l.25-.37-.33.16-.25.29Zm.17,7.32.17-.45-.21.21Zm.29-14.72v-.46h-.21V18Zm-.21,20.51h.13v-.12h-.13Zm.13-4.09.24-.29,0-.33.17-.29-.33.21-.13.33Zm.33-18.86-.33-.09.12.17Zm-.33,8.68.16.09.08-.17-.16-.08ZM185,28.7h-.33l-.29.12.33.12.29-.08.16-.25.08-.7-.37-.08.13.54ZM184.39,37h.16v-.16h-.16Zm.08-16.21.54-.05-.29-.2Zm0,.95.29-.09.12-.24-.16-.17Zm1.41,9.14-.17.21-.29.12-.62,0-.17.25-.16.91.41-.29.29.08.42-.08.2-.33h-.37l-.21.16-.29.09-.12-.33.45-.29.29-.09.25.25v-.33l.38.33v-.41l.37-.08.25-.38-.58.17Zm-1.41,2,.37.13.08-.13-.29-.2Zm.08-16.34.33,0,.13-.24-.25.08Zm.33,5.67-.33-.41.08.29Zm-.16,14.44.08-.42-.25-.08v.33Zm-.09-9.19.25.17.21-.17-.25-.12Zm0,1.91.29.16.13-.24-.13-.13Zm.09-10.22h.45l.08.33.38.42-.25-.67v-.33l-.29-.2-.17.24Zm0,16.71.37.08,0-.37-.33-.16Zm.08-11.37.45.29.05-.33.16-.34-.21-.08-.2.25Zm.12.7v.33l-.12.25V26l.66-.46-.16-.16-.05-.29Zm.54,9.14-.08.37-.37-.2-.13.33v.29l.33,0,.79-.38.08-.33-.16-.25-.13.25Zm.33-12.45-.33.54-.54.08.25.29,0,.33.21.13,0-.58.37-.09.62.21.33-.21-.08.54h-.37l-.25.13v.41l.17.21v-.29l.16-.17.46.17v-.29l.53-.33-.25-.29.05-.38L187,22l0,.29-.25.17-.25-.21-.37-.08.21-.25.25-.12-.29-.05-.21.21Zm.75,11.71-.29-.21-.25,0v-.21l-.7.17-.29-.13.12.25.5.25.25-.25,0,.46.45.16.33-.41.29,0-.08-.37L186.7,33l0,.29Zm-1.45-16.3.29,0L185.3,17l-.21-.08Zm1,9.64h-.66l-.33-.09.21.25.29.13.33-.09Zm-1,9.84.21.21.16-.29Zm0,.87h.62l-.46-.25Zm.08-4.59h.21l-.21-.17Zm.46-19.77-.09-.29-.29,0,.09.24Zm.08,15.26.37-.08-.16-.29,0-.42-.63-.12.34.58Zm-.37.75.45-.21-.33-.37-.16.29Zm.12-8.61.29,0,.25.21.33,0-.16.21-.25,0v.45l.16-.16h.29l.13-.29,0-.41-.62-.29-.13-.29-.25,0-.2-.13,0,.29Zm.25,4.8.08.25-.16,0-.17.16.25.25-.25.21-.12.33.45-.16,0-.29.37-.42.13-.29-.33-.16ZM185.34,30l.29.29.25-.21.2.12h.37l.17.3.29.12v.29l.54-.21V31l.41.08-.25-.87-.37.34-.08-.29-.25-.09-.29,0-1-.82-.17.29Zm0-14.6h.16v-.13h-.16Zm.25,2.52,0-.25-.21-.12v.25ZM185.38,25l.25.09-.17-.25Zm.25,10.39v.25l.16.12v-.25l.13-.29-.54-.12Zm.08.74-.33,0,.12.17Zm-.25-5.33h.42v-.38l-.29.13Zm0,7.48h.17v-.16h-.17Zm.33,1-.08-.29-.17-.17,0,.29Zm-.25-23.13.34.09V16l.12-.25-.29.16Zm.09,16.63h.29V32.5l.53-.08-.08-.42-.25-.08-.24.17-.21.33ZM186,14.63l0-.33-.17-.21-.08.38Zm-.29,23.29.46.08-.09-.37.17-.16-.37.12Zm.21-21.63.29-.17-.13-.21Zm1.53,9.47,0,.33.16.25.5.37-.62,0-.21.25.08.2-.16.17-.33-.12-.29,0-.54.33.29.16.16.91.25.13-.16-1,.74-.33.25-.2.08-.34.29.17v.45l-.58.25.29.54.25.21.13-.66.33-.58-.25-1.29.29-.2-.33-.09-.29.09Zm-1.37,3.76.21-.2.33,0-.17-.21-.28-.08-.13.25Zm.25,6.79-.25-.38,0,.25Zm-.25-22.22.17-.12-.17-.12Zm0,11,.21-.17-.12-.16Zm.29-8.11V16.7l-.2.17Zm0,2.9.13-.29-.13-.54h-.2l.08.29-.08.33Zm-.2,15.51.37.16.25-.45-.25-.21-.29.13Zm.08-18.12.08.25.21-.29Zm.08,7.2.54.16.2.21,0,.95-.08.29-.16.21.37.16v-.7l.08-.33.21-.25-.09-.29.09-.33h-.25l-.13-.46-.24.17-.33,0Zm0-8.86h.33l-.16-.2Zm0,10.14.33.08.09-.37-.25.08Zm.08-9.39.42.08v-.37l-.25.08Zm.09,2.52h.37l0-.33-.08-.21-.17.29Zm0,10.84h.16v-.12h-.16Zm0,6.37h.78l-.78-.33Zm.16-20.85.29-.16-.2-.25Zm.37,15.93-.37,0,.17.2Zm-.37,5.46.29-.09-.2-.33Zm.09-8.56.2.08.17-.25-.25-.08Zm0,7.61h.12v-.13h-.12Zm.08-6,.58.41v-.53l-.54-.25Zm.45,2.77-.45.29h.33l.16-.25,0-.33-.25-.25v.25Zm-.45,1.82.37.08.12-.53-.29-.09L187,34Zm0-20.93h.16v-.12h-.16Zm0,4.76v.12l.08-.2Zm.08-4.06.33.17.21-.08-.37-.46Zm.33,3.6-.08-.29-.17-.12v.25Zm.21,17.62-.37-.2.12.25Zm-.21.71.13.58.16.25-.37.53.46-.16.2.25-.12.45-.42-.08-.2.45.16.25-.16.54.62-.42.21-.28-.63.16.25-.41h.29l.17-.21-.08-.21.16-.24-.45-.54.2-.29-.37-.25.21-.29-.13-.25Zm-.08-19.49.17-.12-.17-.12Zm0,3.73.25,0,0-.25Zm0,3.76.21.17.33,0-.13-.29.13-.29-.42-.08Zm.46,10.76-.13-.25-.33,0,.17.2Zm-.46,1.07h.12v-.16h-.12ZM187.32,15l.21-.16.08-.29-.29-.08Zm0,13.7h.29l-.25-.33ZM187.9,17l-.12-.37-.25-.25v.33l.08.25Zm-.37,2.52h.17v-.16h-.17ZM187.78,33l.08-.29h-.33Zm-.25,1,.12.25h.29l.21-.17-.25-.12Zm.25-8.65.12-.29-.25.13ZM187.7,23h.16v-.17h-.16Zm.2,10.46-.2-.24v.24Zm0-4.05.09-.29-.21-.16v.29Zm.17-11.09-.21-.37v.25Zm-.21,16.43v.53l.58-.16.08-.29-.16-.17-.21.21Zm.37-10.39-.08-.24-.25,0Zm0-8.39-.08-.29-.16.16ZM188,23.65v.12l.08-.2Zm0,9.06.16.08-.08-.21Zm.16-19.24.08.33.38-.08.16-.33-.29.08Zm0,3.6.21.08-.13-.24Zm.08-2.77.29.33,0-.41-.25-.21Zm0,13.9v.25l.29.16.46-.41h-.25l-.21.12Zm0,8.93h.13l0-.2Zm.38-24,.16-.16-.16-.25-.29,0,.08.24Zm-.29,3.52h.2v-.25h-.16Zm0,10.3.12.53.37-.08-.16-.29v-.33Zm0,10.83.62.17v-.33l-.13-.12-.2.2Zm.54-21.5L189,16l-.29-.13-.25,0,.21.17Zm-.21,9.22v-.29l-.17-.08-.08.25Zm-.25.62h.17l.08-.25h-.25Zm0,2h.17l.08-.17-.25-.08Zm0,10.38h.17v-.17h-.17Zm.08-14.36h.17v-.16h-.17Zm.17.13-.17.37.17.33.25-.54.2-.2Zm0,2.15.62.37v-.54l-.25-.12-.08-.25.2,0,.17-.12-.29-.13-.29.46Zm.16-10.67.17,0-.12-.05Zm0,20.68.25.5.25.12v-.29l-.12-.25.2-.25h-.33Zm.05-22.54.16.08-.08-.21Zm.41.86v-.33l-.33-.12,0,.29Zm-.17.54.38.37.33-.7-.38.13Zm0,23.75.29.08-.12-.25Zm.21-11.92.41.09-.16-.25.16-.21-.29.08Zm.08-13.44h.17v-.17h-.17Zm.33,12.74.46-.54-.29-.12-.29.16-.08.25Zm.13,10.17,0-.28-.25-.13,0,.33ZM189.68,25l.17-.24-.17-.13Zm0,10.39.37.08,0-.25-.25-.08Zm.75-8.4-.21-.29-.37.12.33.13Zm0-13.07-.17-.17-.29,0,.21.25.33.13.33-.46-.33-.08ZM190,25.22l.33.13.21-.13-.29-.12Zm.08-1,.29-.17-.2-.25Zm.17,13.9.08-.34-.25.13Zm-.08.57.24.25.05.29.24-.54-.33-.12Zm.29-23.12.12.21.29,0-.17-.29Zm0,22.92h.24l-.24-.17Zm.16-12.16.21.25.25-.17Zm0,10.17.29,0,0,.25.37-.21-.16-.33v-.29h-.21v.34Zm.08,3.19h.17l-.08-.21Zm.17-12.74h.29l-.17-.21Zm.29-11.54.16-.58-.37.41Zm-.08.62.16-.09-.21-.2Zm.08,19.93h.16v-.16h-.16Zm0,2.28.33.12,0,.42h.17l.16-.13-.29-.29,0-.33Zm.08-12.74.29.16-.08-.28Zm.54-9.93-.33.29.45,0v-.37l-.16-.17h-.37l.16.21Zm-.33,23.83.29,0,0-.25Zm.25-3,0-.25L191.5,36Zm0,.74.37,0,.29-.16-.21-.13-.33.05Zm.16-10.21.13-.09v-.12l-.21-.08ZM192,27l.24-.17H192Zm0,8.69.33.33,0,.2.24.17.09-.54-.29,0-.17-.16ZM192,12.4l.16.33.21-.41Zm.29,13.32h.16l-.2-.09Zm.08-1.33.25-.16h-.17Zm.08,3.15h.21l.12-.25Zm.46,9.14.25.17.08-.46Zm.37,1.41.25,0-.17-.21Zm.17-12.33.33.08,0-.33-.25-.08Zm.08,10.09.29-.12.16-.25-.41.12Zm.16.46h.21l-.08-.21Zm.58,1.9.29-.21-.12-.25-.17.21Zm.34-1.66h.16l-.08-.24Zm.08-.53h.2l-.2-.17Zm1.11-20.23-.08-.25-.21-.08,0,.25Z" transform="translate(-7.08 -2.24)"/></svg>